<?xml version="1.0" encoding="UTF-8" standalone="no"?>
<!-- Generator: Adobe Illustrator 19.1.1, SVG Export Plug-In . SVG Version: 6.00 Build 0)  -->

<svg
   xmlns:dc="http://purl.org/dc/elements/1.1/"
   xmlns:cc="http://creativecommons.org/ns#"
   xmlns:rdf="http://www.w3.org/1999/02/22-rdf-syntax-ns#"
   xmlns:svg="http://www.w3.org/2000/svg"
   xmlns="http://www.w3.org/2000/svg"
   xmlns:sodipodi="http://sodipodi.sourceforge.net/DTD/sodipodi-0.dtd"
   xmlns:inkscape="http://www.inkscape.org/namespaces/inkscape"
   version="1.1"
   id="Camada_1"
   x="0px"
   y="0px"
   viewBox="0 0 120.95391 112.90491"
   xml:space="preserve"
   inkscape:version="0.91 r13725"
   sodipodi:docname="bud.svg"
   width="120.95391"
   height="112.90491"><metadata
     id="metadata237"><rdf:RDF><cc:Work
         rdf:about=""><dc:format>image/svg+xml</dc:format><dc:type
           rdf:resource="http://purl.org/dc/dcmitype/StillImage" /><dc:title></dc:title></cc:Work></rdf:RDF></metadata><defs
     id="defs235" /><sodipodi:namedview
     pagecolor="#ffffff"
     bordercolor="#666666"
     borderopacity="1"
     objecttolerance="10"
     gridtolerance="10"
     guidetolerance="10"
     inkscape:pageopacity="0"
     inkscape:pageshadow="2"
     inkscape:window-width="713"
     inkscape:window-height="522"
     id="namedview233"
     showgrid="false"
     fit-margin-top="0"
     fit-margin-left="0"
     fit-margin-right="0"
     fit-margin-bottom="0"
     inkscape:zoom="0.3"
     inkscape:cx="873.6721"
     inkscape:cy="-93.195093"
     inkscape:window-x="0"
     inkscape:window-y="217"
     inkscape:window-maximized="0"
     inkscape:current-layer="Camada_1" /><style
     type="text/css"
     id="style3">
	.st0{fill:#31A331;}
	.st1{fill:#107A10;}
	.st2{fill:#416C41;}
</style><path
     class="st0"
     d="m 43.472096,110.8 c -25.4,-4.8 -64.9,-39.5 8.6,-103 l 8.7,-7.3 c 0,0 27.9,25.2 37.3,37.7 8.200004,10.8 27.800004,55.2 -18.1,71 -8.7,2.9 -27.6,3.3 -36.5,1.6 z"
     id="path5"
     inkscape:connector-curvature="0"
     style="fill:#31a331" /><path
     class="st1"
     d="m 39.572096,110.8 c -20.4,-4.4 -56.6,-23.4 -30.3999997,-77.9 0,0 18.5999997,57.6 31.1999997,60.3 0,0 -21.5,-26.9 20.3,-62.1 0,0 34.2,47.7 17.2,62.3 0,0 20.3,-6.8 31.300004,-60.8 0,0 39.6,59.9 -26.400004,77.3 -17.3,4.6 -32.6,3.1 -43.2,0.9 z"
     id="path7"
     inkscape:connector-curvature="0"
     style="fill:#107a10" /><g
     id="g9"
     transform="translate(393.6721,-73.9)"><g
       id="g11"><g
         id="g13"><g
           id="g15"><g
             id="g17"><path
               class="st2"
               d="m -352.3,113.9 c 0,0 0.1,0 0.1,0 l -0.1,-0.1 0,0.1 z"
               id="path19"
               inkscape:connector-curvature="0"
               style="fill:#416c41" /><path
               class="st2"
               d="m -351.9,113.6 c -0.1,-0.1 -0.2,-0.2 -0.3,-0.2 0.1,0.1 0.1,0.1 0.2,0.2 0,0.1 -0.1,0.1 -0.1,0.1 0,0 -0.1,0.1 0,0.1 0.1,0 0.2,-0.1 0.1,-0.3 0,0 0.1,0.1 0.1,0.1 z"
               id="path21"
               inkscape:connector-curvature="0"
               style="fill:#416c41" /><path
               class="st2"
               d="m -349.9,107.6 0,0 c 0,0.1 0,0.1 0,0 z"
               id="path23"
               inkscape:connector-curvature="0"
               style="fill:#416c41" /><path
               class="st2"
               d="m -348.5,104 c 0,0 0,0.1 0,0 0,0 0,0 0,0 z"
               id="path25"
               inkscape:connector-curvature="0"
               style="fill:#416c41" /><path
               class="st2"
               d="m -348.1,103.5 c 0,0 0,0 0,0 0,0 0,0 0,0 z"
               id="path27"
               inkscape:connector-curvature="0"
               style="fill:#416c41" /><path
               class="st2"
               d="m -349.9,107.6 0,0 c 0.1,-0.1 0.1,0 0,0 z"
               id="path29"
               inkscape:connector-curvature="0"
               style="fill:#416c41" /><path
               class="st2"
               d="m -352.1,112.6 c 0,0.1 0.1,0.1 0,0 l 0,0 0,0 z"
               id="path31"
               inkscape:connector-curvature="0"
               style="fill:#416c41" /><path
               class="st2"
               d="m -350.3,109.3 0,0 c 0,0.1 0,0.1 0,0 l 0,0 z"
               id="path33"
               inkscape:connector-curvature="0"
               style="fill:#416c41" /><path
               class="st2"
               d="m -350.6,110.6 c 0,0 -0.1,-0.1 -0.2,-0.1 0,0 0.1,0 0.2,0.1 -0.1,0 -0.1,0 0,0 z"
               id="path35"
               inkscape:connector-curvature="0"
               style="fill:#416c41" /><path
               class="st2"
               d="m -351.4,112.5 0,0 c 0,0 0,0 0,0 z"
               id="path37"
               inkscape:connector-curvature="0"
               style="fill:#416c41" /><path
               class="st2"
               d="m -350,108.4 c 0.1,0 0.1,0 0,0 0.1,0 0.1,0 0,0 z"
               id="path39"
               inkscape:connector-curvature="0"
               style="fill:#416c41" /><path
               class="st2"
               d="m -334.4,75.2 0,0 c 0,0 0,0 0,0 z"
               id="path41"
               inkscape:connector-curvature="0"
               style="fill:#416c41" /><polygon
               class="st2"
               points="-333,74.4 -333,74.4 -332.9,74.4 "
               id="polygon43"
               style="fill:#416c41" /><path
               class="st2"
               d="m -347.5,102.4 0,0 c 0,0 0,0 0,0 z"
               id="path45"
               inkscape:connector-curvature="0"
               style="fill:#416c41" /><path
               class="st2"
               d="m -343.2,92.2 c -0.2,0.1 -0.1,-0.3 -0.3,-0.1 0.1,0 0.2,0.2 0.3,0.1 z"
               id="path47"
               inkscape:connector-curvature="0"
               style="fill:#416c41" /><path
               class="st2"
               d="m -352,112.6 0,0 c 0,0 0,0 0,0 z"
               id="path49"
               inkscape:connector-curvature="0"
               style="fill:#416c41" /><polygon
               class="st2"
               points="-343.4,92 -343.4,92 -343.5,92.1 "
               id="polygon51"
               style="fill:#416c41" /><path
               class="st2"
               d="m -346.6,99.8 c 0,0 0,0 0,0 0,0 0,0 0,0 z"
               id="path53"
               inkscape:connector-curvature="0"
               style="fill:#416c41" /><path
               class="st2"
               d="m -347.5,101.6 0,0 c 0,0 0,0 0,0 z"
               id="path55"
               inkscape:connector-curvature="0"
               style="fill:#416c41" /><path
               class="st2"
               d="m -346.4,98.7 c 0.1,0 0.1,0 0,0 l 0,0 c 0.1,0 0.1,0 0,0 z"
               id="path57"
               inkscape:connector-curvature="0"
               style="fill:#416c41" /><polygon
               class="st2"
               points="-345.9,97.7 -345.9,97.7 -346,97.7 "
               id="polygon59"
               style="fill:#416c41" /><path
               class="st2"
               d="m -336.4,78 c 0,0 0.1,0 0.1,0 0,0 0,-0.1 -0.1,0 z"
               id="path61"
               inkscape:connector-curvature="0"
               style="fill:#416c41" /><path
               class="st2"
               d="m -352,112.7 c 0,-0.1 0,-0.1 0,0 l 0,0 c 0,0 0,0 0,0 z"
               id="path63"
               inkscape:connector-curvature="0"
               style="fill:#416c41" /><path
               class="st2"
               d="m -347.4,98.2 0.1,-0.2 c 0,0.1 0,0.2 -0.1,0.2 z"
               id="path65"
               inkscape:connector-curvature="0"
               style="fill:#416c41" /><path
               class="st2"
               d="m -340.6,85 0,0 c 0,-0.1 0,-0.1 0,0 z"
               id="path67"
               inkscape:connector-curvature="0"
               style="fill:#416c41" /><path
               class="st2"
               d="m -347.1,97.6 c 0.1,0 0.1,0 0.1,-0.1 0,0 0,0 0,0 l -0.1,0.1 z"
               id="path69"
               inkscape:connector-curvature="0"
               style="fill:#416c41" /><path
               class="st2"
               d="m -336.2,78.1 0,0 0,0 z"
               id="path71"
               inkscape:connector-curvature="0"
               style="fill:#416c41" /><path
               class="st2"
               d="m -335.8,76.9 c -0.1,0.1 0.1,0.2 0.2,0.3 -0.1,0.2 -0.2,0 -0.3,0 0,0.1 0.1,0.3 0,0.4 0,0 0,0 -0.1,0 0,0.2 -0.2,0.3 -0.2,0.6 0,0 0,0 0,0 0.1,0 0.2,0.1 0.2,0.1 0,0.1 0,0.2 -0.1,0.1 0,0 0,-0.1 0,-0.1 l 0,0.1 c -0.2,0 0,-0.1 -0.1,-0.2 0,0.2 0,0.4 -0.1,0.5 -0.2,-0.1 0.1,-0.3 -0.1,-0.2 l 0.2,-0.1 c -0.3,0 0.1,-0.1 -0.2,-0.1 -0.2,0.2 -0.1,0.3 -0.3,0.5 0,0.1 0.1,0.1 0.2,0.2 0,0.4 -0.5,0 -0.5,0.3 0.1,0.1 0.2,0.3 0,0.3 l -0.1,-0.2 c -0.1,0.2 0.2,0.3 -0.1,0.4 0,-0.1 0,-0.2 0,-0.2 -0.2,0.1 0,0.2 0,0.3 l -0.2,-0.1 c -0.1,0.2 -0.2,0.5 -0.3,0.8 0,0 -0.1,-0.1 -0.1,-0.1 -0.1,0.3 -0.4,0.6 -0.7,0.9 l 0.1,0.2 c 0,0 -0.1,0 -0.1,0 -0.1,0.1 0.1,0.1 0.1,0.1 0,0.1 -0.1,0 -0.1,0 0,0.3 -0.1,0.7 -0.4,0.8 l 0,-0.1 c -0.2,0.1 0.1,0.3 -0.1,0.4 l 0,0 c -0.3,0.3 -0.4,0.8 -0.7,1 0.2,0.2 -0.3,0.3 0,0.5 -0.2,0.1 -0.3,0 -0.5,0.3 -0.1,0.1 0.1,0.2 0.1,0.3 l -0.1,-0.1 0.1,0.2 -0.2,0 0,0.1 c 0,0 0.1,0 0.1,0 0,0.2 -0.3,0.3 -0.4,0.3 l -0.1,0.4 c 0,0 0,-0.1 0,-0.2 0,0.3 -0.2,0 -0.1,0.2 0,0 0.1,0.1 0.1,0.1 -0.1,0 -0.2,0.2 -0.3,0.4 l -0.1,-0.1 c -0.2,0.2 -0.2,0.5 -0.4,0.8 0.1,-0.1 0.2,0 0.2,0.1 l -0.2,0 c 0.1,0.1 0.1,-0.1 0.1,0.1 -0.1,0.1 -0.2,0 -0.2,-0.1 l 0,0.2 c 0,0 -0.1,-0.1 -0.1,-0.1 0.1,0.1 -0.3,0.1 -0.2,0.3 l 0,0 c -0.2,0.3 -0.2,0.4 -0.3,0.7 0.1,0.1 0,0.1 0.1,0.3 -0.1,0.1 -0.3,0.3 -0.4,0.5 0,0.2 0.1,0.1 0.1,0.2 -0.1,0 -0.2,0.2 -0.2,0 -0.1,0.3 -0.1,0.3 -0.2,0.7 0.1,0 0.1,0 0.1,0 0,0.1 -0.1,0.1 -0.2,0.1 l 0,0 c 0,0.4 -0.7,0.6 -0.7,1 l 0,0 0,0.3 c -0.1,0.1 0,-0.1 -0.2,-0.1 0,0.4 -0.3,0.5 -0.3,0.8 -0.4,0 -0.3,0.7 -0.7,0.9 l 0.1,0 c 0,0.1 -0.1,0.1 -0.1,0.1 0.1,0 0.1,0 0.1,0 -0.2,0.6 -0.7,1.2 -1.1,1.7 -0.1,0.2 0.4,0.3 0,0.5 l -0.1,-0.1 c 0,0.5 -0.4,0.9 -0.5,1.4 0,0 -0.1,-0.1 0,-0.1 -0.2,0 -0.2,0.3 -0.1,0.4 0,0.1 -0.1,0 -0.2,0 -0.1,0.1 0,0.3 -0.1,0.3 0,0 0,0 0,-0.1 0,0.1 -0.1,0.3 0,0.3 -0.1,0.1 -0.1,0.3 -0.2,0.4 0.1,0.1 -0.2,0.3 0,0.4 -0.2,-0.1 -0.3,0.2 -0.2,0.4 0,-0.1 -0.1,0.1 -0.2,0 0,0.1 -0.1,0.3 0.1,0.3 -0.3,0.1 0,0.5 -0.4,0.5 0,0.4 -0.1,0.8 -0.2,1.1 -0.2,-0.1 0.1,-0.4 -0.1,-0.4 0,0.3 0.1,0.6 -0.1,0.9 -0.1,0.1 -0.1,-0.1 -0.1,-0.1 0,0.3 -0.3,0.6 -0.3,0.9 0,0 0,0 0,-0.1 0,0.1 -0.1,0.1 0,0.1 l 0,-0.1 c 0.2,0 0.2,0.3 0.3,0.4 -0.2,-0.2 -0.2,0.2 -0.5,0 0,0 0,0.1 0.1,0.1 0,0 -0.1,0 -0.1,0 0,0.2 0.1,0.2 0,0.4 0,0 -0.1,-0.1 -0.1,-0.1 0.1,0.1 0.1,0.3 0,0.4 0,0 -0.1,0 -0.1,-0.1 -0.1,0.3 0.1,0.5 -0.1,0.8 -0.2,-0.2 -0.1,0.1 -0.3,0 l 0,0.2 0.1,0 c -0.1,0.1 0,0.3 -0.1,0.4 l 0,-0.1 -0.1,0.3 0.1,-0.1 c 0,0.2 0.2,0.1 0.1,0.2 0,0 -0.1,0.1 -0.2,0.2 l 0,0 c 0,0.1 0.1,0.2 0,0.3 -0.1,0 -0.2,-0.1 -0.2,-0.1 0.1,0.1 -0.1,0.3 0.1,0.5 0,0 -0.1,-0.1 -0.1,-0.1 l 0.1,0.1 c -0.1,0 -0.1,0.1 -0.2,0 -0.1,0.2 0.2,0 0.1,0.2 0,0 0,0 0,-0.1 -0.1,0.2 -0.1,0.5 -0.2,0.6 -0.2,0 0,-0.2 -0.2,-0.2 -0.1,0.3 0,0.7 -0.1,1 l 0,0 c 0.2,0.1 -0.2,0.2 -0.1,0.4 0,0 -0.1,-0.1 -0.1,-0.1 -0.1,0.2 -0.1,0.4 -0.1,0.7 l -0.1,-0.1 c -0.1,0.1 -0.1,0.3 -0.2,0.4 0.1,0.1 0,0.1 0.1,0.1 -0.5,0.3 0,0.8 -0.5,1 0,0 0,-0.1 0,-0.1 l 0,0.3 c 0.1,0 0.1,0 0.2,-0.1 0.1,0.1 0.1,0.2 0.1,0.2 0,-0.2 -0.2,-0.1 -0.3,0 0,0 0.1,0 0.1,0 -0.2,0.1 0.2,0.1 0,0.3 l -0.1,0 c 0,0.1 0.1,0.2 0,0.3 -0.1,0 0,-0.1 -0.1,-0.1 0,0.1 0.2,0.3 0,0.4 0,-0.1 0,-0.1 0,-0.2 -0.2,0.1 -0.1,0.1 -0.2,0.2 l 0,0 -0.1,0.2 0.1,0 c 0.3,0.2 0,0.3 0.1,0.6 -0.2,-0.3 -0.1,-0.1 -0.3,-0.1 -0.1,0 -0.1,0.1 -0.2,0.1 0.1,0.1 -0.1,0.1 0,0.3 0,0 0,0.1 -0.1,0 0,0.1 0.1,0 0.1,0 0.1,0.2 -0.3,0.4 -0.2,0.7 0,0.3 0.2,0.4 0.2,0.6 -0.1,0.1 -0.2,-0.1 -0.2,-0.1 -0.1,0.1 -0.1,0.2 -0.1,0.3 0,0 -0.1,0 -0.1,0 0,0.1 0.2,0.1 0.1,0.2 0,0 -0.1,-0.1 -0.2,-0.1 0,0.1 0.1,0.2 0.1,0.4 -0.1,0 -0.1,-0.1 -0.1,-0.2 0,0.1 0,0.3 0.1,0.4 l 0.1,-0.1 c 0,0 -0.1,0 -0.1,0 -0.1,-0.1 0.1,-0.1 0.1,-0.1 l 0,0.1 c 0.3,0 0,-0.3 0.1,-0.5 l 0.2,0.1 -0.1,-0.2 c 0.1,0 0.2,0 0.2,0.1 0.1,-0.1 0,-0.1 0.1,-0.2 0,0 0,0 0,0 l 0,-0.1 c 0,0 0.1,0 0.1,0.1 0.2,-0.2 -0.1,-0.4 0.1,-0.4 l 0,0 c 0,-0.3 -0.1,-0.1 -0.3,-0.3 l 0.4,0 -0.1,-0.1 c 0,0 0,-0.1 0.1,-0.1 -0.1,-0.1 -0.1,0 -0.1,-0.1 0.2,-0.1 0,-0.4 0.3,-0.4 -0.1,-0.1 -0.1,0.1 -0.2,-0.1 0.3,0 0,-0.2 0.2,-0.3 0.1,0.1 0,0.2 0.2,0.1 -0.2,-0.1 0.1,-0.2 0.1,-0.3 -0.2,-0.1 0,-0.3 0,-0.4 0.1,0 0.2,-0.3 0.3,-0.4 l 0,0 c -0.2,-0.1 -0.1,-0.2 -0.1,-0.4 0.1,0 0.1,0.1 0.2,0.2 l 0,-0.1 c 0,0 -0.1,-0.1 -0.1,-0.2 l 0.1,0.1 c 0,-0.2 -0.1,-0.4 0.1,-0.5 -0.1,0 -0.4,0 -0.4,-0.2 0.1,0 0.2,0 0.2,0.1 0,0 0,-0.1 0,-0.1 l 0.1,0.1 c 0.1,-0.1 -0.1,-0.1 0,-0.1 0.1,0 0.1,0 0.2,0 0,0 -0.1,0.1 0,0.1 0,-0.1 0.1,-0.2 0.2,-0.2 -0.1,0 -0.1,0 -0.1,-0.1 0,-0.2 0.1,0 0.2,-0.1 -0.1,-0.1 0,-0.1 -0.1,-0.2 0,0 0.1,0 0.1,0 0,-0.1 0.1,-0.4 -0.1,-0.3 l 0,0 0,0 0,0 0,0 c -0.1,-0.3 0.3,-0.5 0.3,-0.8 l 0,0 c 0,-0.2 0.1,-0.4 0,-0.5 0,0 0.1,-0.1 0.2,0 0,-0.1 0,-0.2 0.1,-0.3 0,0.1 0.1,0 0,0.1 0.1,-0.1 0.2,-0.1 0.1,-0.4 0.1,0.1 0.2,-0.1 0.2,-0.1 l -0.1,0.1 c 0,-0.1 0,-0.2 0.1,-0.2 l 0.1,0.1 c 0.3,-0.2 -0.1,-0.7 0.3,-0.8 -0.1,-0.1 -0.1,0.1 -0.2,0 0.1,-0.1 0.4,-0.2 0.4,-0.2 0.2,-0.2 -0.2,-0.3 0,-0.4 -0.1,0 -0.2,0 -0.2,-0.2 0.1,-0.1 0.3,-0.1 0.3,0 0,0 0,0 0,0 0,0.1 0,0.1 0.1,0.1 l 0,0 c 0.1,0 0.1,-0.2 0.2,-0.2 0,-0.1 -0.1,-0.1 -0.1,0 0.1,-0.2 0.1,-0.3 0.2,-0.4 0,0 -0.1,0 -0.1,0 0.2,-0.2 -0.1,-0.2 0,-0.4 0.1,-0.1 0.2,0.1 0.2,-0.1 0.1,-0.1 0.2,0 0.2,0.1 0,-0.2 0.2,-0.3 0.2,-0.4 l 0,0.1 c 0,-0.1 0,-0.1 0,-0.2 l -0.1,0 c 0,0 0.1,-0.1 0.1,-0.1 -0.1,-0.1 -0.2,0 -0.3,-0.2 0.1,0 0,-0.2 0.2,-0.2 -0.1,0.2 0.2,0 0.1,0.2 0,0 0,-0.1 0.1,-0.1 0,0 0,0 0,0 0.2,-0.2 -0.1,-0.2 0,-0.4 0.1,0.1 0.2,0 0.2,0 0,0.1 -0.2,0 -0.2,-0.1 0.1,-0.1 0,-0.2 0.1,-0.2 l -0.1,0.1 c -0.1,-0.1 0,-0.1 0,-0.2 0.1,0 0,0.1 0.1,0.1 -0.1,-0.2 0.2,-0.2 0.2,-0.4 0.1,0 0.2,0.1 0.2,0 0,-0.2 0.2,-0.1 0.2,-0.3 -0.1,0 -0.1,0 -0.2,-0.1 l 0,0.3 -0.1,-0.3 c 0,0.1 0,0.2 0,0.3 -0.1,-0.1 0,-0.1 -0.1,-0.1 0.2,-0.1 0,-0.3 0.2,-0.4 l 0.3,0.1 c 0.2,-0.2 0,-0.4 0.2,-0.7 l -0.1,0.1 c -0.1,-0.1 0.1,-0.2 0,-0.3 0.1,0 0.1,0 0.2,0 -0.1,0 0.1,-0.2 -0.1,-0.3 l 0.2,-0.1 c 0.1,-0.2 -0.2,-0.4 0,-0.6 0.1,0.1 0.2,0 0.2,0.2 0,-0.1 0.1,-0.1 0,-0.2 0.1,0 0,-0.2 0.1,-0.3 0,0 -0.1,-0.1 -0.1,-0.2 0,0 0,0 0,0 0,0 0,-0.1 -0.1,-0.1 0.4,-0.1 0.2,-0.6 0.6,-0.7 0,-0.2 0.1,-0.4 0.1,-0.5 0,0 0,0 0,0 0.2,-0.2 -0.2,-0.2 0,-0.4 0.2,0 0,0.1 0.1,0.1 0.3,0.1 0.1,-0.3 0.3,-0.3 l 0,0 c 0.2,-0.1 0,-0.3 0.1,-0.5 0,0 0,0 0,0 -0.1,-0.2 0,-0.4 0,-0.6 0.1,0.1 0,0.1 0.2,0.1 0,-0.1 -0.2,-0.1 -0.2,-0.2 0.1,0 0.2,-0.1 0.3,-0.1 l -0.1,0.1 c 0.2,0 0.1,-0.2 0.1,-0.3 l 0.1,0 c 0.1,-0.2 -0.1,-0.3 0,-0.6 l -0.1,0 c -0.1,-0.2 0.1,-0.1 0.1,-0.3 l 0.2,0 c 0,-0.1 0,-0.4 0,-0.6 0.1,0.1 0.1,0.4 0.1,0.5 0,-0.1 0.1,-0.3 0.1,-0.4 0,0 0,0.1 0,0.1 -0.1,-0.2 -0.1,-0.3 0,-0.5 0.3,0.2 0.3,-0.4 0.6,-0.4 0,-0.4 0.3,-0.6 0.5,-0.9 -0.3,0 0,-0.1 -0.2,-0.2 0,-0.1 0,-0.1 0.1,-0.1 l 0.3,-0.2 c 0.1,0 0,0.1 0.1,0.1 0.1,-0.2 0.2,0 0.3,-0.1 -0.1,0 -0.1,-0.1 0,-0.2 l -0.2,0.1 c 0,-0.3 0.3,-0.1 0.3,-0.4 l 0,0.1 c 0,-0.2 0.2,-0.5 0.1,-0.7 0,0 0.1,0 0.1,0.1 0.2,-0.3 0.1,-0.8 0.4,-1 l 0.1,0.1 c 0,-0.1 -0.1,-0.2 0,-0.2 0,0 0.1,0.1 0.1,0 0,0 0,-0.2 0,-0.3 l 0,0.1 c 0.2,-0.2 0.1,-0.5 0.1,-0.8 0.2,0.1 0.4,-0.1 0.5,-0.2 l 0,0 c 0.2,-0.3 0.2,-0.7 0.3,-1 0.3,-0.1 0.5,-0.6 0.7,-0.9 -0.1,0 -0.1,-0.1 -0.1,-0.2 0.1,-0.1 0,-0.3 0.1,-0.2 l 0,0 c 0.2,0 0.2,-0.1 0.3,-0.2 l -0.2,-0.1 c 0.5,-0.1 0.3,-0.9 0.7,-0.9 0,-0.1 0,-0.2 0,-0.3 l 0.1,0.1 c 0.2,-0.2 0.2,-0.3 0.3,-0.5 l 0.1,0.1 c 0.1,-0.1 -0.2,-0.4 -0.2,-0.5 l 0.2,0.1 c 0.1,-0.2 0.4,-0.4 0.4,-0.7 0,0 0.1,0.1 0.1,0.1 0.1,-0.1 0.4,-0.4 0.1,-0.5 0.2,0.1 0.2,-0.2 0.2,-0.4 l 0.1,0.1 c -0.1,-0.2 -0.1,-0.2 -0.1,-0.4 0,0 0.1,0 0.1,0.1 0.1,-0.1 -0.1,-0.2 0.1,-0.3 l 0,0.1 c 0.1,-0.1 0,-0.1 0,-0.3 0,-0.1 0.2,-0.2 0.3,-0.2 -0.1,-0.1 -0.1,-0.2 0,-0.2 0,0 0.1,0.1 0.1,0.1 0.2,-0.2 0.1,-0.4 0.3,-0.5 0,0 0.1,0 0.1,0 -0.1,0.2 -0.2,0.3 -0.2,0.3 0.1,0.1 0.2,-0.1 0.3,0.1 0,-0.2 -0.1,-0.5 0.1,-0.6 0,0 0,0 0,0 l 0,0 c 0,0 0,-0.1 0,-0.1 0,0 0.1,0 0.1,-0.1 0.1,0 0.1,-0.1 0.2,-0.2 -0.1,-0.1 0,-0.1 -0.2,-0.1 0,0 0,0 0,0.1 0,0 0,0 0,0 l 0,0 c 0,0 -0.1,0.1 -0.1,0.2 0,-0.1 0,-0.2 0.1,-0.2 -0.1,-0.1 -0.1,-0.2 -0.1,-0.2 0.2,0 0.4,-0.1 0.5,-0.1 0.1,-0.2 0.3,-0.5 0.1,-0.8 0,-0.1 0.1,0 0.2,0 0,0 0,0.1 0,0.1 0,-0.2 0.2,-0.4 0.1,-0.5 0.2,-0.1 0.1,0.2 0.2,0 l 0,0.1 c 0.5,-0.2 0,-0.9 0.6,-1.1 0,0 -0.1,0 -0.1,0 0.5,-0.4 0.6,-1.1 1.1,-1.4 0.1,-0.1 0.1,-0.2 0,-0.3 l 0.1,0.1 0,-0.2 c 0,-0.3 0.6,-0.1 0.5,-0.5 l -0.1,0 c 0.1,-0.1 0.2,-0.3 0.2,-0.2 0,0 -0.1,-0.1 0,-0.1 l 0.1,0 0.1,-0.3 c 0.2,-0.1 0.2,0.2 0.4,0 0,-0.1 0,-0.4 -0.1,-0.4 0,0 -0.1,0.1 -0.2,0 l 0,-0.1 c -0.2,-0.2 -0.3,-0.4 -0.6,-0.3 l 0,0.2 -0.1,0 0.1,-0.1 c -0.1,0 -0.1,0.1 -0.1,0.2 -0.1,0 -0.1,0 -0.1,0 l 0.1,0.3 c -0.1,0 -0.1,-0.2 -0.2,-0.1 0,0.1 0.2,0.1 0.2,0.2 -0.1,0 -0.2,-0.1 -0.2,0.1 -0.1,0 -0.1,-0.1 -0.1,-0.1 0,0.1 -0.1,0.2 0,0.3 -0.2,0 -0.2,0.3 -0.3,0.1 0,0.1 0,0.2 0,0.3 -0.1,-0.3 -0.2,0.2 -0.4,0 0.1,0.2 -0.2,0.4 -0.2,0.6 0,0 0,-0.1 0,-0.1 -0.1,0.1 -0.2,0.1 -0.2,0.1 0.2,0.1 0.1,0.3 0.1,0.4 -0.2,0 -0.1,-0.2 -0.3,-0.3 0.1,0.1 0,0.3 0.1,0.3 -0.2,0 -0.1,0 -0.3,0 0.2,0.2 0,0.1 0.1,0.3 -0.2,0.1 -0.2,-0.1 -0.2,0.1 -0.3,0.1 -0.3,-0.1 -0.3,-0.1 z m -1.9,3.6 0,0 c 0,-0.1 0,-0.1 0,0 0,-0.1 0,-0.1 0,0 z m -0.2,0.3 c 0,0 0.1,-0.1 0.1,-0.1 0,0 0.1,0.1 0.1,0.1 0,-0.1 -0.1,-0.1 -0.2,0 z m 1.2,-0.1 c 0,0 0,0 0,0 0,0 0,0 0,0 l 0,0 c 0,-0.1 0,0 0,0 z"
               id="path73"
               inkscape:connector-curvature="0"
               style="fill:#416c41" /><path
               class="st2"
               d="m -336.8,80.5 c 0,0 0,0 0,0 0,0 0,0 0,0 l 0,0 0,0 z"
               id="path75"
               inkscape:connector-curvature="0"
               style="fill:#416c41" /><path
               class="st2"
               d="m -349.9,107.7 0,0 c 0,0 0,0 0,0 l 0,0 z"
               id="path77"
               inkscape:connector-curvature="0"
               style="fill:#416c41" /><polygon
               class="st2"
               points="-340.5,84.6 -340.5,84.6 -340.5,84.6 "
               id="polygon79"
               style="fill:#416c41" /><path
               class="st2"
               d="m -350.9,109.3 c -0.1,0 -0.1,0 0,0 -0.1,0 -0.1,0 0,0 z"
               id="path81"
               inkscape:connector-curvature="0"
               style="fill:#416c41" /><path
               class="st2"
               d="m -351.2,110 0,0 c 0,0.1 0,0.1 0,0 z"
               id="path83"
               inkscape:connector-curvature="0"
               style="fill:#416c41" /><path
               class="st2"
               d="m -351.4,110.6 c 0,0 0,0 0,0 l 0,0 0,0 z"
               id="path85"
               inkscape:connector-curvature="0"
               style="fill:#416c41" /><path
               class="st2"
               d="m -348.4,101.3 c 0,0 0,0 0,0 0,-0.1 0,0 0,0 z"
               id="path87"
               inkscape:connector-curvature="0"
               style="fill:#416c41" /><path
               class="st2"
               d="m -349.1,104.2 c 0,0 0,-0.1 0,-0.1 -0.1,0 -0.1,0 0,0.1 z"
               id="path89"
               inkscape:connector-curvature="0"
               style="fill:#416c41" /><polygon
               class="st2"
               points="-347.4,98.2 -347.4,98.2 -347.4,98.2 "
               id="polygon91"
               style="fill:#416c41" /><path
               class="st2"
               d="m -349.1,103.9 c 0,0 -0.1,0.1 0,0.1 -0.1,0 0,0 0,-0.1 z"
               id="path93"
               inkscape:connector-curvature="0"
               style="fill:#416c41" /><path
               class="st2"
               d="m -352.2,113.2 0,0 c 0,0 0,0 0,0 l 0,0 z"
               id="path95"
               inkscape:connector-curvature="0"
               style="fill:#416c41" /><path
               class="st2"
               d="m -352.2,113.2 0,0 c 0,0 0,0 0,0 z"
               id="path97"
               inkscape:connector-curvature="0"
               style="fill:#416c41" /><path
               class="st2"
               d="m -352.2,113.3 0,0 c 0,0 0,0 0,0 z"
               id="path99"
               inkscape:connector-curvature="0"
               style="fill:#416c41" /><path
               class="st2"
               d="m -351.9,112.4 0,0 c -0.1,0 -0.1,0 0,0 z"
               id="path101"
               inkscape:connector-curvature="0"
               style="fill:#416c41" /><path
               class="st2"
               d="m -351.9,112.2 c 0,0.1 -0.1,0.1 -0.1,0.2 l 0,0 c 0,-0.1 0.2,-0.2 0.1,-0.2 z"
               id="path103"
               inkscape:connector-curvature="0"
               style="fill:#416c41" /><path
               class="st2"
               d="m -351,111.3 -0.1,0.2 c 0.1,0 0.1,0 0.1,0 0.3,-0.1 -0.1,0.1 0,-0.2 z"
               id="path105"
               inkscape:connector-curvature="0"
               style="fill:#416c41" /><path
               class="st2"
               d="m -350.8,110.7 c 0,0.1 0.1,0 0.1,0 0,0 0,0 -0.1,0 z"
               id="path107"
               inkscape:connector-curvature="0"
               style="fill:#416c41" /><path
               class="st2"
               d="m -349.4,106.3 0.1,0.1 c 0.1,-0.1 0,0 -0.1,-0.1 z"
               id="path109"
               inkscape:connector-curvature="0"
               style="fill:#416c41" /><polygon
               class="st2"
               points="-349.7,105.3 -349.8,105.3 -349.7,105.4 "
               id="polygon111"
               style="fill:#416c41" /><polygon
               class="st2"
               points="-348.7,105.1 -348.7,105.1 -348.7,105 "
               id="polygon113"
               style="fill:#416c41" /><path
               class="st2"
               d="m -345.9,97.9 -0.2,0 c 0.1,0 0.2,0.1 0.2,0 z"
               id="path115"
               inkscape:connector-curvature="0"
               style="fill:#416c41" /><path
               class="st2"
               d="m -344.7,94.8 c 0.1,0 0.2,-0.1 0.1,-0.1 0,0 -0.1,0 -0.1,0.1 z"
               id="path117"
               inkscape:connector-curvature="0"
               style="fill:#416c41" /><polygon
               class="st2"
               points="-339.8,86 -339.8,86.1 -339.8,85.9 "
               id="polygon119"
               style="fill:#416c41" /></g></g></g></g></g><g
     id="g121"
     transform="translate(393.6721,-73.9)"><g
       id="g123"><g
         id="g125"><g
           id="g127"><g
             id="g129"><path
               class="st2"
               d="m -314.3,114.1 c 0,0 0.1,0 0.1,-0.1 l -0.1,0.1 0,0 z"
               id="path131"
               inkscape:connector-curvature="0"
               style="fill:#416c41" /><path
               class="st2"
               d="m -314.1,113.6 c -0.1,-0.1 -0.3,-0.1 -0.4,0 0.1,0 0.1,0 0.4,0 0,0.1 -0.1,0.2 -0.2,0.2 0,0 0,0.1 0.1,0.1 0.1,-0.1 0.1,-0.2 -0.1,-0.3 0.1,0 0.1,0 0.2,0 z"
               id="path133"
               inkscape:connector-curvature="0"
               style="fill:#416c41" /><path
               class="st2"
               d="m -315.7,107.5 0,0 c 0,0 0,0 0,0 z"
               id="path135"
               inkscape:connector-curvature="0"
               style="fill:#416c41" /><path
               class="st2"
               d="m -316.9,103.8 c 0.1,0 0.1,0 0,0 0.1,0 0,0 0,0 z"
               id="path137"
               inkscape:connector-curvature="0"
               style="fill:#416c41" /><path
               class="st2"
               d="m -316.9,103.1 c 0,0 0,0 0,0 0,0 0,0 0,0 z"
               id="path139"
               inkscape:connector-curvature="0"
               style="fill:#416c41" /><path
               class="st2"
               d="m -315.7,107.5 0,-0.1 c 0,0 0,0 0,0.1 z"
               id="path141"
               inkscape:connector-curvature="0"
               style="fill:#416c41" /><path
               class="st2"
               d="m -314.8,112.9 c 0.1,0 0.1,0 0,0 l 0,0 0,0 z"
               id="path143"
               inkscape:connector-curvature="0"
               style="fill:#416c41" /><path
               class="st2"
               d="m -315,109.1 0,0 c 0,0 0,0 0,0 l 0,0 z"
               id="path145"
               inkscape:connector-curvature="0"
               style="fill:#416c41" /><path
               class="st2"
               d="m -314.6,110.3 c 0,0 -0.1,0 -0.2,0 0,0.1 0.1,0.1 0.2,0 -0.1,0.1 0,0.1 0,0 z"
               id="path147"
               inkscape:connector-curvature="0"
               style="fill:#416c41" /><path
               class="st2"
               d="m -314.3,112.4 0,0 0,0 z"
               id="path149"
               inkscape:connector-curvature="0"
               style="fill:#416c41" /><path
               class="st2"
               d="m -315.3,108.2 c 0,0 0.1,0 0,0 0,0 0,0 0,0 z"
               id="path151"
               inkscape:connector-curvature="0"
               style="fill:#416c41" /><path
               class="st2"
               d="m -332.6,75.9 0,0 c 0,0 0,0 0,0 z"
               id="path153"
               inkscape:connector-curvature="0"
               style="fill:#416c41" /><polygon
               class="st2"
               points="-333,74.3 -333,74.3 -332.9,74.3 "
               id="polygon155"
               style="fill:#416c41" /><path
               class="st2"
               d="m -317.2,101.9 0,0 c 0,0 0,0 0,0 z"
               id="path157"
               inkscape:connector-curvature="0"
               style="fill:#416c41" /><path
               class="st2"
               d="m -321.8,91.7 c -0.1,0.2 -0.2,-0.1 -0.3,0.1 0.1,0 0.3,0.1 0.3,-0.1 z"
               id="path159"
               inkscape:connector-curvature="0"
               style="fill:#416c41" /><path
               class="st2"
               d="m -314.7,112.8 0,0 c -0.1,0 -0.1,0 0,0 z"
               id="path161"
               inkscape:connector-curvature="0"
               style="fill:#416c41" /><path
               class="st2"
               d="m -322.1,91.8 0,0 0,0 c 0,0 0,0 0,0 z"
               id="path163"
               inkscape:connector-curvature="0"
               style="fill:#416c41" /><path
               class="st2"
               d="m -318.3,99.3 c 0,0 0,0 0,0 0,0.1 0,0 0,0 z"
               id="path165"
               inkscape:connector-curvature="0"
               style="fill:#416c41" /><path
               class="st2"
               d="m -317.7,101.3 0,0 c 0,0 0,0 0,0 z"
               id="path167"
               inkscape:connector-curvature="0"
               style="fill:#416c41" /><path
               class="st2"
               d="m -318.9,98.4 c 0,0 0,-0.1 0,0 l 0,0 c 0,-0.1 0,-0.1 0,0 z"
               id="path169"
               inkscape:connector-curvature="0"
               style="fill:#416c41" /><polygon
               class="st2"
               points="-319.3,97.3 -319.4,97.4 -319.3,97.4 "
               id="polygon171"
               style="fill:#416c41" /><path
               class="st2"
               d="m -330.6,78.7 c 0,0 0,-0.1 0.1,-0.1 -0.1,0.1 -0.2,-0.1 -0.1,0.1 z"
               id="path173"
               inkscape:connector-curvature="0"
               style="fill:#416c41" /><path
               class="st2"
               d="m -314.7,112.8 c 0,0 0,0 0,0 l 0,0 c 0,0.1 0,0.1 0,0 z"
               id="path175"
               inkscape:connector-curvature="0"
               style="fill:#416c41" /><path
               class="st2"
               d="m -319.9,98.8 0,-0.2 c -0.1,0 -0.1,0.1 0,0.2 z"
               id="path177"
               inkscape:connector-curvature="0"
               style="fill:#416c41" /><path
               class="st2"
               d="m -326.4,85.5 0,0 c 0,0 0,0 0,0 z"
               id="path179"
               inkscape:connector-curvature="0"
               style="fill:#416c41" /><path
               class="st2"
               d="m -320.2,98.1 c 0,0 0,-0.1 0,-0.1 0,0 0,0 0,0 l 0,0.1 z"
               id="path181"
               inkscape:connector-curvature="0"
               style="fill:#416c41" /><path
               class="st2"
               d="m -330.5,78.6 0,0 0,0 z"
               id="path183"
               inkscape:connector-curvature="0"
               style="fill:#416c41" /><path
               class="st2"
               d="m -331.5,77.8 c 0.1,0.1 0.2,0 0.3,-0.1 0.2,0.1 -0.1,0.2 -0.1,0.3 0.1,0.1 0.3,0.1 0.4,0.1 0,0 0,0 -0.1,0 0.2,0 0.2,0.3 0.5,0.4 0,0 0,0 0,0 0.1,-0.1 0.1,-0.1 0.2,-0.2 0,0.1 0.2,0.1 0.1,0.1 0,0 -0.1,0 -0.1,0 l 0.1,0 c -0.1,0.2 -0.1,-0.1 -0.2,0 0.1,0.1 0.4,0.2 0.4,0.3 -0.1,0.1 -0.2,-0.2 -0.2,0 l 0,-0.2 c -0.1,0.3 0,-0.1 -0.2,0.2 0.1,0.2 0.2,0.2 0.3,0.4 0.1,0 0.1,-0.1 0.2,-0.1 0.3,0.2 -0.2,0.5 0.1,0.5 0.1,0 0.3,-0.1 0.3,0.1 l -0.2,0.1 c 0.1,0.2 0.3,0 0.3,0.2 -0.1,0 -0.2,-0.1 -0.2,-0.1 0,0.2 0.2,0 0.2,0.1 l -0.1,0.1 c 0.2,0.2 0.4,0.4 0.6,0.6 -0.1,0 -0.1,0 -0.1,0.1 0.3,0.2 0.4,0.6 0.5,1 l 0.2,0 c 0,0 0,0.1 -0.1,0.1 0,0.1 0.1,0 0.2,0 0,0.1 0,0.1 -0.1,0.1 0.2,0.1 0.6,0.4 0.6,0.7 l -0.1,0 c 0,0.2 0.4,0 0.3,0.2 l 0,0 c 0.2,0.4 0.5,0.7 0.5,1.1 0.2,-0.1 0.1,0.4 0.4,0.3 0,0.3 -0.1,0.2 0,0.6 0,0.1 0.2,0 0.3,0.1 l -0.1,0.1 0.2,0 -0.1,0.2 0.1,0.1 c 0,0 0,-0.1 0.1,-0.1 0.1,0.1 0.1,0.4 0,0.4 l 0.3,0.3 c -0.1,0 -0.1,0 -0.2,0 0.2,0.1 -0.1,0.1 0.1,0.2 0,0 0.1,0 0.1,0 0,0.1 0.1,0.3 0.2,0.4 l -0.1,0 c 0.1,0.3 0.3,0.5 0.5,0.8 0,-0.1 0.2,-0.2 0.2,-0.1 l -0.1,0.1 c 0.1,0 0,-0.1 0.2,-0.1 0,0.1 -0.1,0.2 -0.2,0.1 l 0.1,0.1 c 0,0 -0.1,0 -0.1,0 0.1,0 0,0.3 0.2,0.3 l 0,0 c 0.2,0.3 0.3,0.4 0.4,0.6 0.1,-0.1 0.1,0 0.3,0.1 0,0.2 0,0.4 0.2,0.6 0.1,0.1 0.1,0 0.2,0 -0.1,0.1 0,0.3 -0.1,0.2 0.1,0.2 0.2,0.3 0.4,0.6 0,-0.1 0,-0.1 0.1,-0.1 0,0 0,0.2 0,0.2 l 0,0 c 0.4,0.3 0.1,1 0.5,1.1 l 0,0 0.3,0.2 c 0,0.1 -0.1,0 -0.1,0.1 0.3,0.2 0.2,0.5 0.5,0.7 -0.2,0.4 0.4,0.7 0.3,1.1 l 0.1,-0.1 c 0.1,0 0,0.1 0,0.2 0.1,0 0,-0.1 0.1,-0.1 0.4,0.5 0.5,1.3 0.7,1.9 0.1,0.2 0.5,-0.1 0.4,0.3 l -0.2,0 c 0.4,0.4 0.4,0.9 0.8,1.3 0,0 -0.1,0 -0.1,0 -0.1,0.1 0.1,0.3 0.2,0.3 0,0.1 -0.1,0.1 -0.1,0.1 0,0.1 0.2,0.2 0.2,0.3 0,0 0,0 -0.1,0 0.1,0 0.1,0.3 0.2,0.2 0,0.2 0.2,0.3 0.2,0.5 0.2,0 0.1,0.3 0.3,0.3 -0.2,0.1 0,0.4 0.1,0.4 -0.1,0 0,0.1 -0.1,0.1 0.1,0.1 0.1,0.2 0.2,0.1 -0.2,0.3 0.4,0.4 0.1,0.6 0.3,0.3 0.5,0.6 0.7,0.9 -0.2,0.1 -0.2,-0.3 -0.4,-0.2 0.2,0.3 0.5,0.4 0.5,0.7 0,0.1 -0.1,0 -0.2,0 0.2,0.3 0.2,0.6 0.4,0.8 0,0 -0.1,0 -0.1,0 0,0.1 0,0.1 0.1,0.1 l 0,0 c 0.1,-0.1 0.4,0.1 0.5,0.1 -0.3,0 0,0.3 -0.4,0.3 0,0 0.1,0.1 0.2,0 0,0.1 0,0.1 -0.1,0.1 0.1,0.2 0.2,0.1 0.3,0.2 0,0 -0.1,0 -0.1,0 0.1,0.1 0.2,0.1 0.3,0.3 0,0 -0.1,0 -0.1,0 0.1,0.3 0.4,0.3 0.4,0.7 -0.2,0 0,0.1 -0.2,0.2 l 0.1,0.1 0.1,-0.1 c 0,0.1 0.2,0.2 0.2,0.3 l -0.1,-0.1 0.1,0.2 0,-0.2 c 0.1,0.1 0.2,-0.1 0.2,0.1 0,0 0,0.1 0,0.2 l 0,0 c 0.1,0 0.2,0.1 0.2,0.2 0,0 -0.2,0 -0.2,0.1 0.2,0 0.2,0.3 0.3,0.3 0,0 -0.1,0 -0.2,0 l 0.1,0 c 0,0.1 0,0.1 -0.1,0.1 0,0.2 0.2,-0.1 0.2,0.1 0,0 0,0 -0.1,0 0,0.2 0.2,0.4 0.2,0.6 -0.2,0.1 -0.1,-0.2 -0.2,0 0.1,0.3 0.4,0.5 0.5,0.8 l 0,-0.1 c 0.3,0 -0.1,0.3 0.1,0.4 0,0 -0.2,0 -0.1,0 0,0.2 0.2,0.4 0.4,0.7 l -0.1,0 c 0,0.1 0.1,0.3 0.1,0.5 0.1,0 0.1,0.1 0.2,0 -0.2,0.5 0.4,0.7 0.2,1.1 0,0 -0.1,-0.1 -0.1,0 l 0.2,0.3 c 0.1,-0.1 0.1,-0.1 0.1,-0.1 0.1,0 0.2,0.1 0.2,0.2 -0.1,-0.1 -0.2,0.1 -0.2,0.1 0,0 0.1,0 0.1,0 -0.1,0.2 0.2,0 0.2,0.2 l -0.1,0 c 0.1,0.1 0.2,0.1 0.2,0.2 -0.1,0.1 -0.1,-0.1 -0.2,0 0,0.1 0.3,0.2 0.2,0.3 0,0 -0.1,-0.1 -0.1,-0.2 -0.1,0.2 -0.1,0.2 -0.1,0.3 l 0,0 0,0.2 0,-0.1 c 0.4,0 0.1,0.3 0.4,0.4 -0.3,-0.1 -0.1,0 -0.3,0 0,0.1 0,0.2 -0.1,0.1 0.1,0.1 0,0.2 0.2,0.3 0,0 0,0.1 -0.1,0.1 0.1,0.1 0.1,-0.1 0.1,-0.1 0.2,0.1 -0.1,0.5 0.2,0.7 0.2,0.2 0.3,0.2 0.5,0.4 -0.1,0.1 -0.2,0 -0.2,0 0,0.1 0,0.2 0.1,0.3 0,0 -0.1,0 -0.1,0.1 0,0.1 0.2,0 0.2,0.2 -0.1,0 -0.1,0 -0.2,0 0.1,0.1 0.2,0.2 0.3,0.3 -0.1,0.1 -0.1,0 -0.2,-0.1 0.1,0.1 0.2,0.3 0.3,0.3 l 0,-0.1 c 0,0 -0.1,0.1 -0.1,0 -0.1,-0.1 0,-0.2 0,-0.2 l 0.1,0.1 c 0.3,-0.2 -0.1,-0.3 -0.2,-0.5 l 0.2,0 -0.2,-0.1 c 0,0 0.1,-0.1 0.2,0 0.1,-0.1 -0.1,-0.1 0,-0.2 0,0 0,0 0,0 l -0.1,-0.1 c 0,0 0.1,-0.1 0.1,0 0.1,-0.2 -0.2,-0.3 -0.1,-0.4 l 0,0 c -0.1,-0.3 -0.2,0 -0.4,-0.1 l 0.3,-0.2 -0.2,0 c 0,0 0,-0.1 0.1,-0.1 -0.1,-0.1 -0.1,0 -0.2,0 0.1,-0.2 -0.2,-0.4 0.1,-0.5 -0.1,0 0,0.2 -0.2,0 0.2,-0.1 -0.1,-0.2 0,-0.3 0.1,0 0.1,0.1 0.2,0 -0.2,0 0,-0.3 -0.1,-0.4 -0.2,0 -0.1,-0.2 -0.2,-0.4 0.1,0 0,-0.4 0,-0.5 l 0,0 c -0.2,0 -0.2,-0.2 -0.3,-0.3 0.1,0 0.2,0 0.2,0 l 0,-0.1 c -0.1,0 -0.1,0 -0.2,-0.1 l 0.1,0 c -0.1,-0.2 -0.3,-0.3 -0.2,-0.5 -0.1,0 -0.3,0.3 -0.4,0.1 0.1,0 0.2,-0.1 0.2,0 0,0 -0.1,0 -0.1,-0.1 l 0.1,0 c 0,-0.1 -0.1,0 -0.1,-0.1 0.1,0 0,-0.1 0.1,-0.1 0,0 0,0.1 0,0.1 0,-0.1 0,-0.2 0.1,-0.3 -0.1,0 -0.1,0 -0.2,0 -0.1,-0.2 0.1,-0.1 0.1,-0.2 -0.1,0 0,-0.1 -0.2,-0.1 0,0 0,-0.1 0.1,-0.1 -0.1,-0.1 -0.1,-0.4 -0.3,-0.2 l 0,0 0,0 0,0 0,0 c -0.2,-0.2 -0.1,-0.6 -0.2,-0.8 l 0,0 c -0.1,-0.1 -0.1,-0.3 -0.3,-0.4 0,0 0.1,-0.1 0.1,-0.1 -0.1,-0.1 -0.1,-0.1 -0.1,-0.3 0.1,0.1 0.1,-0.1 0.1,0.1 0,-0.2 0.1,-0.2 -0.1,-0.3 0.1,0 0.1,-0.2 0.1,-0.2 l 0,0.1 c 0,-0.1 -0.1,-0.1 -0.1,-0.2 l 0.2,0 c 0.1,-0.4 -0.5,-0.4 -0.3,-0.8 -0.1,0 0,0.2 -0.2,0.2 0,-0.1 0.1,-0.4 0.1,-0.4 0,-0.2 -0.3,-0.1 -0.3,-0.3 0,0 -0.2,0.1 -0.3,0 0,-0.1 0.2,-0.3 0.2,-0.2 0,0 0,0.1 0,0.1 0,0 0.1,0.1 0.1,0 l -0.1,0 c 0,-0.1 0,-0.3 0.1,-0.3 -0.1,-0.1 -0.1,0 -0.1,0.1 0,-0.2 -0.1,-0.3 -0.1,-0.5 0,0 -0.1,0.1 -0.1,0.1 0,-0.3 -0.2,-0.1 -0.2,-0.3 0,-0.1 0.2,0 0.1,-0.2 0,-0.1 0.1,-0.1 0.2,-0.1 -0.2,-0.1 0,-0.3 -0.1,-0.5 l 0.1,0.1 c 0,0 -0.1,-0.1 -0.1,-0.1 l -0.1,0.1 c 0,-0.1 0,-0.1 0,-0.1 -0.1,0 -0.2,0.1 -0.3,0 0,-0.1 -0.1,-0.2 0,-0.3 0,0.2 0.1,-0.1 0.2,0.1 0,0 0,-0.1 0,-0.1 0,0 0,0 0,0 0.1,-0.3 -0.2,0 -0.3,-0.3 0.1,0 0.1,-0.1 0.1,-0.1 0,0.1 -0.1,0.1 -0.2,0 0,-0.2 -0.1,-0.1 -0.1,-0.2 l 0,0.1 c -0.1,0 -0.1,-0.1 -0.2,-0.2 0.1,0 0.1,0.1 0.1,0 -0.2,-0.1 0.1,-0.3 -0.1,-0.4 0,-0.1 0.2,-0.1 0.2,-0.1 -0.2,-0.1 0,-0.2 -0.1,-0.4 -0.1,0.1 -0.1,0.1 -0.2,0 l 0.2,0.3 -0.2,-0.1 c 0,0.1 0.1,0.2 0.1,0.2 -0.1,-0.1 -0.1,-0.1 -0.2,0 0.1,-0.2 -0.2,-0.2 -0.1,-0.4 l 0.3,-0.1 c 0,-0.3 -0.3,-0.3 -0.3,-0.6 l 0,0.1 c -0.1,0 -0.1,-0.2 -0.2,-0.2 0.1,0 0.1,-0.1 0.1,-0.2 -0.1,0 -0.1,-0.2 -0.3,-0.2 l 0.1,-0.2 c 0,-0.2 -0.4,-0.1 -0.4,-0.4 0.1,0 0.2,-0.1 0.3,0 0,-0.1 0,-0.1 -0.1,-0.1 0,-0.1 -0.2,-0.1 -0.1,-0.2 -0.1,0 -0.2,0 -0.2,-0.1 0,0 0,0 0,0 0,0 -0.1,-0.1 -0.2,0 0.2,-0.3 -0.3,-0.6 -0.1,-0.9 -0.1,-0.1 -0.2,-0.3 -0.3,-0.4 0,0 0,0 0,0 0,-0.2 -0.3,0 -0.3,-0.3 0.1,-0.2 0.1,0.1 0.2,0 0.3,-0.2 -0.2,-0.2 0,-0.5 l 0,0 c 0.1,-0.2 -0.2,-0.2 -0.3,-0.4 0,0 0,0 0,0 -0.2,-0.1 -0.4,-0.3 -0.5,-0.4 0.1,0 0.1,0.1 0.2,0 -0.1,-0.1 -0.2,0.1 -0.3,0 0,-0.1 0,-0.2 0.2,-0.3 l 0.1,0.1 c 0.1,-0.1 -0.1,-0.2 -0.1,-0.3 l 0.1,0 c -0.1,-0.2 -0.3,-0.1 -0.4,-0.4 l 0,0 c -0.2,-0.1 0,-0.2 -0.1,-0.2 l 0.2,-0.1 c -0.1,-0.1 -0.3,-0.2 -0.4,-0.4 0.2,0 0.3,0.2 0.5,0.2 0,-0.1 -0.2,-0.3 -0.3,-0.3 0,0 0.1,0 0.1,0.1 -0.2,0 -0.3,-0.1 -0.4,-0.3 0.4,-0.1 -0.1,-0.5 0.1,-0.7 -0.3,-0.2 -0.2,-0.6 -0.4,-1 -0.2,0.3 -0.1,-0.1 -0.3,0.1 -0.1,-0.1 -0.1,-0.1 -0.1,-0.1 l 0,-0.3 c 0.1,-0.1 0.1,0 0.2,0 -0.1,-0.2 0.1,-0.1 0.1,-0.3 -0.1,0.1 -0.2,0 -0.2,-0.1 l -0.1,0.2 c -0.3,-0.2 0.1,-0.3 -0.1,-0.5 l 0.1,0 c -0.1,-0.1 -0.2,-0.5 -0.5,-0.5 0,0 0.1,-0.1 0.1,-0.1 -0.1,-0.3 -0.6,-0.6 -0.6,-0.9 l 0.1,0 c 0,0 -0.2,0 -0.1,-0.1 0,0 0.1,0 0.1,0 0,0 -0.2,-0.1 -0.2,-0.2 l 0.1,0 c -0.1,-0.3 -0.4,-0.4 -0.6,-0.6 0.2,-0.1 0.1,-0.4 0.1,-0.5 l 0,0 c -0.2,-0.4 -0.5,-0.5 -0.7,-0.8 0.1,-0.3 -0.3,-0.7 -0.3,-1.1 0,0.1 -0.2,0.1 -0.2,0 0,-0.1 -0.2,-0.1 -0.1,-0.2 l 0,0 c 0.1,-0.2 0,-0.3 -0.1,-0.4 l -0.2,0.1 c 0.2,-0.5 -0.6,-0.7 -0.4,-1.1 -0.1,0 -0.2,-0.1 -0.3,-0.2 l 0.1,-0.1 c -0.1,-0.2 -0.1,-0.3 -0.3,-0.6 l 0.1,0 c -0.1,-0.1 -0.5,0 -0.5,-0.1 l 0.2,-0.1 c -0.1,-0.2 -0.1,-0.6 -0.4,-0.7 0,0 0.1,0 0.1,0 -0.1,-0.1 -0.2,-0.5 -0.4,-0.3 0.2,-0.1 -0.1,-0.3 -0.3,-0.4 l 0.1,-0.1 c -0.2,0 -0.3,0 -0.4,-0.1 0,0 0.1,-0.1 0.1,0 0,-0.2 -0.2,0 -0.2,-0.2 l 0.1,0 c -0.1,-0.1 -0.1,-0.1 -0.2,-0.1 -0.1,-0.1 -0.1,-0.3 0,-0.3 -0.1,0 -0.2,0 -0.2,-0.1 0,0 0.1,0 0.1,0 -0.1,-0.3 -0.3,-0.2 -0.3,-0.4 0,0 0.1,0 0.1,-0.1 0.1,0.2 0.2,0.3 0.2,0.3 0.1,-0.1 0,-0.2 0.3,-0.2 -0.2,-0.1 -0.4,-0.1 -0.5,-0.3 0,0 0,0 0,0 l 0,0 c 0,0 0,-0.1 -0.1,-0.1 0,-0.1 0,-0.1 0,-0.1 0.1,-0.1 -0.1,-0.2 -0.1,-0.3 -0.1,0.1 -0.2,0 -0.2,0.1 0,0 0,0 0.1,0 0,0 0,0 0,0 l 0,0 c 0,0 0.1,0.1 0.1,0.2 -0.1,0 -0.2,0 -0.2,-0.2 -0.1,0 -0.2,0 -0.3,0 0.1,-0.2 0.1,-0.4 0.2,-0.5 -0.2,-0.2 -0.4,-0.5 -0.7,-0.4 -0.1,0 0,-0.1 0,-0.2 0,0 0.1,0.1 0.1,0.1 -0.1,-0.1 -0.2,-0.3 -0.4,-0.3 0,-0.2 0.2,0 0,-0.2 l 0.1,0 c 0,-0.6 -0.8,-0.4 -0.8,-1 0,0 0,0.1 0,0.1 -0.2,-0.6 -0.8,-0.9 -0.9,-1.6 -0.1,-0.2 -0.2,-0.1 -0.3,-0.1 l 0.1,-0.1 -0.2,0 c -0.2,-0.1 0,-0.6 -0.3,-0.7 l -0.1,0.1 c -0.1,-0.1 -0.3,-0.3 -0.2,-0.3 0,0 -0.1,0 -0.1,0 l 0.1,-0.1 -0.3,-0.1 c -0.1,-0.2 0.3,-0.2 0.1,-0.4 -0.1,-0.1 -0.4,-0.1 -0.4,-0.1 0,0 0,0.1 0,0.2 l -0.1,-0.1 c -0.2,0.1 -0.4,0.2 -0.4,0.5 l 0.2,0.1 -0.1,0.1 -0.1,-0.1 c 0,0.1 0.1,0.1 0.2,0.1 0,0 -0.1,0.1 -0.1,0.1 l 0.3,0 c -0.1,0.1 -0.2,0 -0.2,0.2 0.1,0 0.1,-0.2 0.3,-0.1 0,0.1 -0.1,0.2 0,0.2 0,0 -0.1,0.1 -0.1,0 0.1,0 0.2,0.2 0.3,0.1 -0.1,0.1 0.2,0.2 0,0.3 0.1,0 0.2,0 0.3,0.1 -0.3,0 0.2,0.3 -0.1,0.4 0.3,0 0.3,0.3 0.5,0.4 0,0 -0.1,0 -0.1,0 0,0.1 0,0.2 0,0.3 0.2,-0.1 0.3,0 0.5,0 -0.1,0.2 -0.2,0.1 -0.4,0.2 0.1,-0.1 0.3,0.1 0.3,0 0,0.2 0,0.1 -0.1,0.2 0.2,-0.1 0.1,0.1 0.3,0 0,0.2 -0.2,0.2 0,0.3 -0.7,0.5 -0.9,0.4 -0.9,0.4 z m 2.6,3.1 0,0 c -0.1,-0.1 -0.1,-0.1 0,0 -0.1,-0.1 -0.1,-0.1 0,0 z m 0.1,0.3 c 0,0 0,-0.1 -0.1,-0.1 0,0 0.1,-0.1 0.1,0 0,-0.1 0,0 0,0.1 z m 0.5,-1.2 c 0,0.1 0,0.1 0,0 0,0.1 0,0.1 0,0 l 0,0 c -0.1,0 0,0 0,0 z"
               id="path185"
               inkscape:connector-curvature="0"
               style="fill:#416c41" /><path
               class="st2"
               d="m -328.5,80.1 c 0,-0.1 0,-0.1 0,0 -0.1,0 -0.1,0 0,0 l 0,0 0,0 z"
               id="path187"
               inkscape:connector-curvature="0"
               style="fill:#416c41" /><path
               class="st2"
               d="m -315.7,107.6 0,0 c 0,0 0,0 0,0 l 0,0 z"
               id="path189"
               inkscape:connector-curvature="0"
               style="fill:#416c41" /><polygon
               class="st2"
               points="-326.6,85.2 -326.6,85.2 -326.6,85.2 "
               id="polygon191"
               style="fill:#416c41" /><path
               class="st2"
               d="m -315.6,109.5 c 0,0 0,0 0,0 0,0 0,0 0,0 z"
               id="path193"
               inkscape:connector-curvature="0"
               style="fill:#416c41" /><path
               class="st2"
               d="m -315.4,110.2 0,0.1 c 0,0 0,-0.1 0,-0.1 z"
               id="path195"
               inkscape:connector-curvature="0"
               style="fill:#416c41" /><path
               class="st2"
               d="m -315.3,110.8 c 0.1,0 0.1,0 0,0 l 0,0 0,0 z"
               id="path197"
               inkscape:connector-curvature="0"
               style="fill:#416c41" /><path
               class="st2"
               d="m -318.6,101.7 0,0 c 0,-0.1 0,0 0,0 z"
               id="path199"
               inkscape:connector-curvature="0"
               style="fill:#416c41" /><path
               class="st2"
               d="m -317.2,104.3 c -0.1,0 -0.1,0 0,0 -0.1,0 -0.1,0 0,0 z"
               id="path201"
               inkscape:connector-curvature="0"
               style="fill:#416c41" /><polygon
               class="st2"
               points="-319.9,98.8 -319.9,98.8 -319.9,98.8 "
               id="polygon203"
               style="fill:#416c41" /><path
               class="st2"
               d="m -317.4,104.1 c 0,0.1 0,0.1 0,0.1 0.1,0 0.1,-0.1 0,-0.1 z"
               id="path205"
               inkscape:connector-curvature="0"
               style="fill:#416c41" /><path
               class="st2"
               d="m -314.6,113.4 0,0 c 0,0 0,0 0,0 l 0,0 z"
               id="path207"
               inkscape:connector-curvature="0"
               style="fill:#416c41" /><path
               class="st2"
               d="m -314.6,113.4 0,0 c 0,0 0,0 0,0 z"
               id="path209"
               inkscape:connector-curvature="0"
               style="fill:#416c41" /><path
               class="st2"
               d="m -314.5,113.5 0,0 c -0.1,0 -0.1,0 0,0 z"
               id="path211"
               inkscape:connector-curvature="0"
               style="fill:#416c41" /><path
               class="st2"
               d="m -314.8,112.6 0,0 c 0,0 0,0 0,0 z"
               id="path213"
               inkscape:connector-curvature="0"
               style="fill:#416c41" /><path
               class="st2"
               d="m -314.9,112.4 c 0,0.1 -0.1,0.2 0,0.2 l 0,0 c 0,0 0.1,-0.2 0,-0.2 z"
               id="path215"
               inkscape:connector-curvature="0"
               style="fill:#416c41" /><path
               class="st2"
               d="m -314.5,111.2 0,0.2 c 0,0 0.1,-0.1 0.1,0 0.1,-0.3 -0.1,0.1 -0.1,-0.2 z"
               id="path217"
               inkscape:connector-curvature="0"
               style="fill:#416c41" /><path
               class="st2"
               d="m -314.6,110.6 c 0.1,0.1 0.1,0 0.1,0 -0.1,-0.1 -0.1,-0.1 -0.1,0 z"
               id="path219"
               inkscape:connector-curvature="0"
               style="fill:#416c41" /><path
               class="st2"
               d="m -316,106.1 0.1,0 c 0,-0.1 0,0 -0.1,0 z"
               id="path221"
               inkscape:connector-curvature="0"
               style="fill:#416c41" /><polygon
               class="st2"
               points="-316.9,105.5 -317,105.6 -316.9,105.6 "
               id="polygon223"
               style="fill:#416c41" /><polygon
               class="st2"
               points="-316.3,104.7 -316.2,104.8 -316.3,104.6 "
               id="polygon225"
               style="fill:#416c41" /><path
               class="st2"
               d="m -319.2,97.5 -0.1,0.1 c 0.1,0 0.2,-0.1 0.1,-0.1 z"
               id="path227"
               inkscape:connector-curvature="0"
               style="fill:#416c41" /><path
               class="st2"
               d="m -320.7,94.5 c 0.1,-0.1 0.1,-0.2 0,-0.2 0,0 0,0.1 0,0.2 z"
               id="path229"
               inkscape:connector-curvature="0"
               style="fill:#416c41" /><polygon
               class="st2"
               points="-325.1,85.4 -325,85.4 -325.1,85.3 "
               id="polygon231"
               style="fill:#416c41" /></g></g></g></g></g></svg>