<?xml version="1.0" encoding="UTF-8" standalone="no"?>
<!-- Generator: Adobe Illustrator 19.1.1, SVG Export Plug-In . SVG Version: 6.00 Build 0)  -->

<svg
   xmlns:dc="http://purl.org/dc/elements/1.1/"
   xmlns:cc="http://creativecommons.org/ns#"
   xmlns:rdf="http://www.w3.org/1999/02/22-rdf-syntax-ns#"
   xmlns:svg="http://www.w3.org/2000/svg"
   xmlns="http://www.w3.org/2000/svg"
   xmlns:sodipodi="http://sodipodi.sourceforge.net/DTD/sodipodi-0.dtd"
   xmlns:inkscape="http://www.inkscape.org/namespaces/inkscape"
   version="1.1"
   id="Camada_1"
   x="0px"
   y="0px"
   viewBox="0 0 101.07758 42.800846"
   xml:space="preserve"
   inkscape:version="0.91 r13725"
   sodipodi:docname="cloud.svg"
   width="101.07758"
   height="42.800846"><metadata
     id="metadata11"><rdf:RDF><cc:Work
         rdf:about=""><dc:format>image/svg+xml</dc:format><dc:type
           rdf:resource="http://purl.org/dc/dcmitype/StillImage" /><dc:title></dc:title></cc:Work></rdf:RDF></metadata><defs
     id="defs9" /><sodipodi:namedview
     pagecolor="#ffffff"
     bordercolor="#666666"
     borderopacity="1"
     objecttolerance="10"
     gridtolerance="10"
     guidetolerance="10"
     inkscape:pageopacity="0"
     inkscape:pageshadow="2"
     inkscape:window-width="684"
     inkscape:window-height="480"
     id="namedview7"
     showgrid="false"
     fit-margin-top="0"
     fit-margin-left="0"
     fit-margin-right="0"
     fit-margin-bottom="0"
     inkscape:zoom="2.3251232"
     inkscape:cx="192.46789"
     inkscape:cy="30.150846"
     inkscape:window-x="0"
     inkscape:window-y="217"
     inkscape:window-maximized="0"
     inkscape:current-layer="Camada_1" /><style
     type="text/css"
     id="style3">
	.st0{fill:#8C11AA;}
</style><path
     class="st0"
     d="m 91.267886,32.5 c 0.2,-0.9 0.3,-2.2 0.3,-3.1 0,-5.7 -4.3,-10.5 -9.6,-10.5 -0.9,0 -1.8,0 -2.6,0.3 -2.1,-4.4 -6.3,-7.6 -11.3,-8.1 -2.2,-6.4 -8.4,-11.1 -15.6,-11.1 -6.7,0 -12.5,4 -15.1,9.8 -1.5,-0.5 -3.1,-0.9 -4.8,-0.9 -7.5,0 -13.5,5.8 -14.1,13.1 0,0 -0.1,0 -0.1,0 -5.5,0 -10,3.4 -10,7.6 0,0.6 0.1,2 0.3,2.6 -11,1.5 -8.40000001,10.6 -8.40000001,10.6 l 100.80000401,0 c 0,0.1 0.7,-8.7 -9.800004,-10.3 z"
     id="path5"
     inkscape:connector-curvature="0"
     style="fill:#8C11AA" /></svg>