<?xml version="1.0" encoding="UTF-8" standalone="no"?>
<!-- Generator: Adobe Illustrator 19.1.1, SVG Export Plug-In . SVG Version: 6.00 Build 0)  -->

<svg
   xmlns:dc="http://purl.org/dc/elements/1.1/"
   xmlns:cc="http://creativecommons.org/ns#"
   xmlns:rdf="http://www.w3.org/1999/02/22-rdf-syntax-ns#"
   xmlns:svg="http://www.w3.org/2000/svg"
   xmlns="http://www.w3.org/2000/svg"
   xmlns:sodipodi="http://sodipodi.sourceforge.net/DTD/sodipodi-0.dtd"
   xmlns:inkscape="http://www.inkscape.org/namespaces/inkscape"
   version="1.1"
   id="Camada_1"
   x="0px"
   y="0px"
   viewBox="0 0 959 275.79999"
   xml:space="preserve"
   inkscape:version="0.91 r13725"
   sodipodi:docname="dirt.svg"
   width="959"
   height="275.79999"><metadata
     id="metadata123"><rdf:RDF><cc:Work
         rdf:about=""><dc:format>image/svg+xml</dc:format><dc:type
           rdf:resource="http://purl.org/dc/dcmitype/StillImage" /><dc:title></dc:title></cc:Work></rdf:RDF></metadata><defs
     id="defs121" /><sodipodi:namedview
     pagecolor="#ffffff"
     bordercolor="#666666"
     borderopacity="1"
     objecttolerance="10"
     gridtolerance="10"
     guidetolerance="10"
     inkscape:pageopacity="0"
     inkscape:pageshadow="2"
     inkscape:window-width="1240"
     inkscape:window-height="752"
     id="namedview119"
     showgrid="false"
     fit-margin-top="0"
     fit-margin-left="0"
     fit-margin-right="0"
     fit-margin-bottom="0"
     inkscape:zoom="0.6"
     inkscape:cx="390.05902"
     inkscape:cy="187.64019"
     inkscape:window-x="0"
     inkscape:window-y="217"
     inkscape:window-maximized="0"
     inkscape:current-layer="Camada_1" /><style
     type="text/css"
     id="style3">
	.st0{fill:#472006;}
	.st1{fill:#4A3224;}
</style><g
     id="g5"
     transform="translate(-3.2,-234.5)"><rect
       x="6.1999998"
       y="237.2"
       class="st0"
       width="953.79999"
       height="269.89999"
       id="rect7"
       style="fill:#472006" /><g
       id="g9"><g
         id="g11"><g
           id="g13"><g
             id="g15"><path
               class="st1"
               d="m 958.7,507.2 c 0.2,1.3 0.6,0.6 0.5,-3 l -0.7,-2.5 0.2,5.5 z"
               id="path17"
               inkscape:connector-curvature="0"
               style="fill:#4a3224" /><path
               class="st1"
               d="m 959.9,483.3 c -0.3,-4.2 -0.9,-9 -1.5,-6.3 0.6,4.1 0.4,5.1 1.1,9.6 0.1,3.6 -0.2,6.2 -0.5,5.6 0.2,1.3 -0.1,5.5 0.3,7.4 0.5,-4.6 0.5,-10.5 0.1,-16.6 0.2,-1.3 0.4,0 0.5,0.3 z"
               id="path19"
               inkscape:connector-curvature="0"
               style="fill:#4a3224" /><path
               class="st1"
               d="m 859,236.3 2.2,0.1 c -0.6,0 -1.4,-0.1 -2.2,-0.1 z"
               id="path21"
               inkscape:connector-curvature="0"
               style="fill:#4a3224" /><path
               class="st1"
               d="m 643.9,236 c 1.6,0 2.3,-0.1 2.4,-0.1 -1.5,0 -2.7,0 -2.4,0.1 z"
               id="path23"
               inkscape:connector-curvature="0"
               style="fill:#4a3224" /><path
               class="st1"
               d="m 607.2,235.2 c 0.8,0 1.5,0 2.2,0 -0.9,0 -1.7,0 -2.2,0 z"
               id="path25"
               inkscape:connector-curvature="0"
               style="fill:#4a3224" /><path
               class="st1"
               d="m 859,236.3 -5.7,-0.2 c -0.5,0.2 2.9,0.2 5.7,0.2 z"
               id="path27"
               inkscape:connector-curvature="0"
               style="fill:#4a3224" /><path
               class="st1"
               d="m 958.3,435.4 c 0,1.2 0.1,2.2 0.2,3.1 0,-1 0,-1.9 -0.1,-2.9 0,0 -0.1,-0.1 -0.1,-0.2 z"
               id="path29"
               inkscape:connector-curvature="0"
               style="fill:#4a3224" /><path
               class="st1"
               d="m 953.8,235.8 1.7,0 c 0.3,0 0.5,-0.1 0.7,-0.1 0.3,0 0.4,-0.1 0.8,-0.1 -0.1,0 -0.9,0.1 -1.7,0.1 -0.7,0 -1.5,0.1 -1.5,0.1 z"
               id="path31"
               inkscape:connector-curvature="0"
               style="fill:#4a3224" /><path
               class="st1"
               d="m 961.6,303.8 c 0,-1.6 -0.5,-2.2 -0.8,-2.8 0.2,0.9 0.3,2.1 0.4,3.6 0.1,-0.1 0.2,-0.3 0.4,-0.8 z"
               id="path33"
               inkscape:connector-curvature="0"
               style="fill:#4a3224" /><path
               class="st1"
               d="m 960.6,419.1 0.1,2 c -0.1,-0.5 -0.1,-1.4 -0.1,-2 z"
               id="path35"
               inkscape:connector-curvature="0"
               style="fill:#4a3224" /><path
               class="st1"
               d="m 901.7,235.7 c -0.1,-0.1 -0.4,-0.2 -0.7,-0.2 0,0 0.3,0.1 0.7,0.2 z"
               id="path37"
               inkscape:connector-curvature="0"
               style="fill:#4a3224" /><path
               class="st1"
               d="m 875.7,504.5 c -0.1,0 0,0.1 0,0.1 0.4,0 0.5,-0.1 0,-0.1 z"
               id="path39"
               inkscape:connector-curvature="0"
               style="fill:#4a3224" /><path
               class="st1"
               d="m 960,507.3 -1.2,0 c -0.1,0.1 -0.3,0.2 -0.3,0.3 l 1.5,-0.3 z"
               id="path41"
               inkscape:connector-curvature="0"
               style="fill:#4a3224" /><path
               class="st1"
               d="m 540,234.5 c 0.1,0 0.2,0 0.3,0 1.8,0 0.8,0 -0.3,0 z"
               id="path43"
               inkscape:connector-curvature="0"
               style="fill:#4a3224" /><path
               class="st1"
               d="m 3.9,320.3 c 0.5,-7 0.6,11.4 1.2,0.9 -0.2,0.9 -0.9,-9.6 -1.2,-0.9 z"
               id="path45"
               inkscape:connector-curvature="0"
               style="fill:#4a3224" /><path
               class="st1"
               d="m 958.4,433.6 c 0,-1 0,-2 0,-3 -0.1,1.3 0,2.2 0,3 z"
               id="path47"
               inkscape:connector-curvature="0"
               style="fill:#4a3224" /><path
               class="st1"
               d="m 5.1,321.2 0,0 0.1,-1.1 c -0.1,0.4 -0.1,0.7 -0.1,1.1 z"
               id="path49"
               inkscape:connector-curvature="0"
               style="fill:#4a3224" /><path
               class="st1"
               d="m 385.2,234.8 c 0.3,0.1 0.9,0.2 1.6,0.2 -0.1,0 -0.4,0 -1.6,-0.2 z"
               id="path51"
               inkscape:connector-curvature="0"
               style="fill:#4a3224" /><path
               class="st1"
               d="m 500.5,235.6 -2.9,-0.1 c 1.2,0.1 2.1,0.1 2.9,0.1 z"
               id="path53"
               inkscape:connector-curvature="0"
               style="fill:#4a3224" /><path
               class="st1"
               d="m 325.3,235.6 c -1.6,0 -2.1,-0.1 -4.2,0 0.2,0 0.4,0 0.6,0.1 0.8,-0.1 1.8,-0.2 3.6,-0.1 z"
               id="path55"
               inkscape:connector-curvature="0"
               style="fill:#4a3224" /><path
               class="st1"
               d="m 263,235.6 c 0.3,0 0.8,0.1 1.2,0.1 0.6,0 1.3,0 2,0 l -3.2,-0.1 z"
               id="path57"
               inkscape:connector-curvature="0"
               style="fill:#4a3224" /><path
               class="st1"
               d="m 686.2,504.8 c 1.4,0.2 2.2,0.3 2.9,0.5 -1,-0.4 8.2,-0.5 -2.9,-0.5 z"
               id="path59"
               inkscape:connector-curvature="0"
               style="fill:#4a3224" /><path
               class="st1"
               d="m 958.6,435.4 c -0.1,-0.4 -0.2,-0.9 -0.2,-1.9 0,0.7 0,1.4 0,2.1 0.1,0.2 0.2,0.2 0.2,-0.2 z"
               id="path61"
               inkscape:connector-curvature="0"
               style="fill:#4a3224" /><path
               class="st1"
               d="m 322.8,240.1 -9.9,-0.1 c 2.7,0 6.3,0.1 9.9,0.1 z"
               id="path63"
               inkscape:connector-curvature="0"
               style="fill:#4a3224" /><path
               class="st1"
               d="m 239.1,504.9 2.3,-0.1 c -1,0 -1.8,0 -2.3,0.1 z"
               id="path65"
               inkscape:connector-curvature="0"
               style="fill:#4a3224" /><path
               class="st1"
               d="m 283.5,240.1 c -1.8,-0.2 -3.6,-0.3 -5.6,-0.4 -0.4,0 -0.9,0.1 -1.2,0.1 l 6.8,0.3 z"
               id="path67"
               inkscape:connector-curvature="0"
               style="fill:#4a3224" /><path
               class="st1"
               d="m 689.1,505.3 c 0,0 0,0 0,0 0,0 0,0 0,0 z"
               id="path69"
               inkscape:connector-curvature="0"
               style="fill:#4a3224" /><path
               class="st1"
               d="m 754.4,504 c -9.4,0 -4.4,0.7 -6.4,1.1 -11.3,0.2 -5.2,-0.5 -9,-0.9 -7,0.2 -12.4,0.9 -17.7,0.8 -0.4,-0.1 -1.4,-0.2 -0.2,-0.3 -7.4,0.6 -22.1,0 -30.7,0.8 -0.6,-0.1 -1,-0.1 -1.1,-0.2 1.4,0.4 1.6,0.7 1.3,1 -4.2,0 -7.9,0.5 -9.4,0 2.6,0 2.8,-0.2 4,-0.3 l -4.4,0.2 c -4,-0.7 6.1,-0.2 6.1,-0.8 -8.6,0.2 -18.7,0.8 -25.3,0.6 -1.4,-0.7 15.5,-0.2 6.6,-0.8 l 10.2,0.3 c -7.8,-1.1 6.2,0.1 -1,-1.1 -13.5,-0.2 -15.1,0.3 -28.5,0.1 -3,0.4 1,0.6 -2,0.9 -19.1,0.7 -15.1,-1.7 -29.1,-0.8 -3.6,0.5 -5.1,1.3 -15.1,0.9 l 3.4,-0.8 c -13.1,-0.1 -7.5,1.1 -21.1,0.6 2.4,-0.3 10.3,-0.3 8.3,-0.3 -8.9,-0.6 -6.3,0.4 -13.1,0.4 l -1.4,-0.7 c -13.9,0.1 -29.2,0.6 -44.6,0.7 0.9,-0.2 3.5,-0.4 -0.1,-0.6 -19.4,0.3 -41.5,-0.1 -60.2,-0.5 l -7.2,0.6 c -1.7,0 -3.1,-0.3 -1.3,-0.4 -7.3,-0.2 -0.4,0.4 -3.9,0.6 -4.2,0 -5.5,-0.3 -2.9,-0.5 -12.9,0.5 -36.7,1.1 -50.3,0.4 l 2.6,-0.2 c -10.6,-0.2 -11.9,1.2 -21.7,0.7 l 1.9,-0.1 c -22.9,-0.3 -48.3,0.3 -65.8,-0.6 -3.3,0.8 -22.7,-0.4 -24.2,0.8 -13.1,-0.6 -9.3,-0.8 -27.8,-1.2 -4.9,-0.1 -7.3,0.7 -13.4,0.9 l -0.1,-0.6 -8.3,0.6 -4.4,-0.7 -5.7,0.2 c 2.3,0 4.8,0.3 4.5,0.5 -4.5,0.1 -9.9,0 -14.2,-0.1 -4.4,-0.2 -7.6,-0.4 -7.7,-0.6 l -21.1,0.5 c 0.5,-0.2 4,-0.3 6.8,-0.5 -11.3,0.6 -2,-0.6 -12.4,-0.1 1.4,0.1 -0.7,0.4 -1,0.5 -5.1,-0.4 -16.9,-0.4 -25.5,-0.2 l 1.7,-0.4 c -15.7,-0.1 -33,0.2 -50.6,0.2 6.3,0.2 4.9,0.9 -0.3,1 l -2.1,-0.7 c -3.3,0.4 5.4,0.2 -1.4,0.7 -6.6,-0.1 -4.4,-0.7 -0.6,-1 l -8,0.2 c -0.5,-0.2 1.4,-0.3 1.9,-0.5 -3.3,0.4 -13.8,-0.7 -18.5,0 l -0.4,-0.2 c -17.6,0 -25.5,0.2 -39.8,0.3 -0.3,0.6 -5.9,0.4 -10.1,0.9 -5.3,-0.1 -10.8,-0.2 -16.6,-0.4 -2.9,-0.1 -5.9,-0.1 -8.9,-0.2 -1.5,0 -3.1,0 -4.6,0 -1,0 -2.1,0 -3.2,0 -0.2,0 -0.3,0 -0.4,0.1 -0.1,-0.4 -0.1,-0.7 -0.2,-0.9 -0.1,-0.5 -0.1,-0.7 -0.2,-0.7 -0.1,0 -0.2,0.3 -0.4,-1.5 C 8.6,501 8.6,488.4 8.9,495 8.8,479.8 8.8,475.6 8.4,456.3 c -0.2,2.1 -0.3,4.4 -0.5,3.2 -0.1,-3.5 0.2,-7.9 0.5,-7.4 L 8.5,453 C 7.7,431.4 10,403.2 8.9,386 L 9,387 8.4,369.2 c 0.1,-8.2 0.4,4.9 0.7,-1.2 -0.9,-19.2 0.1,-30.4 -0.4,-46.2 1.5,-12.3 -0.1,-43.5 0.9,-60 l -0.4,1 c -0.3,-4.3 0.2,-5.2 0.3,-8.3 -0.3,0.4 -0.3,4.6 -0.5,2 0,-5.5 -0.1,-11.1 -0.1,-16.8 6.9,0 13.8,0.1 20.7,0.1 7.7,0.1 15.5,0.2 23.3,0.3 15.6,0.2 31.2,0.4 46.5,0.6 13.6,0.1 7.7,-1.8 24.8,-1 l -4.9,0.7 c 27.4,-0.8 56.1,0 82.9,-0.6 -1.6,0.2 -1.6,0.4 -4.3,0.3 2.8,0.2 8.1,0.2 12.6,0.1 4.5,-0.1 8.4,-0.3 8.4,-0.5 4.2,0 1,0.4 3.5,0.6 5.7,0.3 14.3,-0.6 17.3,-0.1 0.5,0.1 -1.6,0.2 -2.6,0.2 3.7,-0.2 17.3,0.1 13.7,-0.5 10.1,0.3 19.3,-0.2 27.3,0.1 5.2,-0.6 17.2,0.3 18.9,-0.6 -0.7,0.9 17.7,0.7 24,0.3 -2.1,0.3 5.5,0.3 3,0.7 7.3,0 13.9,-0.2 12.7,-0.6 13.4,1.1 26.9,-0.9 34.5,0.5 21.6,-0.5 41.6,-0.8 61,-1 -0.7,0.9 -21.5,0.1 -20.6,1 18.4,-0.4 29.1,-1.1 47.3,-0.9 4.7,0.1 -2.7,0.4 -4.3,0.5 18.4,-0.4 35.6,0.1 52,-0.4 0,0.1 -1.8,0.2 -3.5,0.2 3.2,0 7.5,0.1 7.1,-0.3 l -3.1,0.1 c -5.2,-0.6 12.8,-1.2 13.4,-1.6 -5.5,1.2 16.2,0.3 7.5,1.8 2.1,-0.1 4.8,-0.3 4.3,-0.5 3.2,0.1 4.2,0.2 1,0.6 11.6,-0.2 7.5,-0.7 17.9,-0.6 0,0.2 -2.2,0.3 -3.2,0.5 5.3,-0.4 10.6,-0.8 19.5,-0.6 -0.5,0.1 0.5,0.3 -2.1,0.3 15.2,-0.1 25.9,-1 42.6,-0.7 -4.9,0.9 5.7,0.3 6.6,1 l 9,-0.2 -3.6,-0.4 c 7.9,0 14.8,-0.5 21.6,-0.3 l -5.8,0.3 14.7,-0.1 -8.3,-0.3 c 7.9,-0.4 -0.9,-0.9 9.6,-0.7 -2.1,0.1 7.9,0 12,0.4 l 0,0 c 3.9,-0.2 7.9,-0.5 13.7,-0.3 1.5,0.2 -1.2,0.8 -0.2,1 3.8,-0.6 18.4,-0.2 23.3,-0.8 -1.6,0.2 -1.7,0.5 -1.2,0.6 l 3.2,-0.5 c 3.6,0.2 4.2,0.2 3.6,0.6 10.9,0.1 -3.5,-0.9 9.5,-0.5 -1,0 -0.5,0.1 -2.7,0.2 13,0.2 25.2,-0.3 37.2,-0.1 3.5,0.8 -10.5,0.2 -6.4,0.8 17.3,-0.1 35.8,-0.9 52.5,-0.7 l -3.1,-0.1 c 2.3,-1.1 12.5,0.5 20.9,0 -2.1,0.1 -2.7,0.6 -2.2,0.5 11.5,0.2 23.4,-0.3 40.8,-0.6 l -2.2,0.3 c 6.8,0.2 17.8,0.1 25.1,0.3 2.2,-0.3 6.3,-0.2 3.8,-0.6 22.5,1.6 42.9,-0.8 62.8,0.5 -2.4,0 -5.7,0.2 -3.8,0.2 l 17,-0.3 c -1.3,-0.5 -2.2,-0.3 -5.8,-0.6 1.1,-0.1 2.7,-0.3 4.7,-0.3 1,0 2,-0.1 3.1,-0.1 1,0 2.1,0 3.1,0 0,0.1 0,0.2 0,0.2 0,-0.1 0,-0.2 0,-0.2 -2.5,0.1 -3.1,0.2 -2.9,0.4 0.2,0.1 1.2,0.2 2.2,0.4 -0.1,1 -0.2,2 -0.3,2.8 0.1,-0.6 0.3,0.6 0.4,0.3 -0.8,8.9 0.9,1.5 0.4,13.6 l -0.2,-0.6 c 0.1,4.5 0.4,8.7 0.4,13.6 -0.5,2 -0.2,-4.8 -0.7,-5.1 0,6.9 1,13.6 0.5,19.8 -0.1,-2.9 -0.2,-7.1 -0.3,-10 -0.6,6.8 -0.5,7.6 -0.6,12.6 l 0,-0.5 -0.3,11.6 0.2,-3 c 1.4,8.6 0.3,17.5 1.2,29.1 -0.9,-11.3 -0.5,-1.9 -1.1,-2.7 -0.2,3 -0.4,7.5 -0.5,6.2 0.5,5.5 -0.4,9.1 0.3,16.9 -0.2,0.3 0,5.9 -0.5,4.6 0.2,7.1 0.3,-1.7 0.6,-1.1 0.7,11 -0.8,25.8 0.1,41.6 0.4,13.6 1,16.1 1.4,28.8 -0.3,4.3 -0.7,-3.5 -0.7,-3.5 -0.3,6.9 -0.2,12 0,18.5 -0.2,-1.3 -0.3,0 -0.5,2 0.1,5.2 0.7,3.5 0.4,10.3 -0.2,-1.2 -0.6,-2.7 -0.8,-5.2 0.2,6.1 0.5,12.2 0.7,18.5 -0.3,1.7 -0.5,-3.8 -0.7,-6.1 0.2,7.1 0.3,18.5 0.8,20.7 l 0.2,-4.6 c 0,2.6 -0.5,1.3 -0.6,-0.6 -0.4,-6.1 0.2,-8.8 0.4,-9.2 l 0.1,4.5 c 1.1,-4.6 -0.2,-18.1 -0.1,-27.2 l 0.8,3.8 -0.7,-9.3 c 0.2,-2 0.7,-3.3 0.8,1.2 0.4,-6.5 -0.3,-5.8 0.2,-11.4 0.1,-0.6 0.1,-0.3 0.1,0.2 l -0.2,-6.4 c 0.2,1.2 0.6,-1.1 0.5,2.9 0.5,-11.4 -0.6,-18.4 0,-22.7 l 0.1,1 c -0.3,-15.9 -0.6,-1.5 -1.3,-13.4 l 1.5,-8 -0.6,-1.6 c 0,-1.6 0.1,-4.9 0.3,-4.3 -0.4,-6.1 -0.3,1 -0.7,-2.5 0.6,-7.9 -0.3,-21.7 0.7,-23.5 -0.5,-2.8 -0.4,7.5 -0.7,-0.9 1,-2.4 -0.2,-9.7 0.3,-16.9 0.5,2.2 0.3,9 0.7,1.8 -0.9,-4.3 0.2,-14 0,-20.1 -0.7,-0.3 -0.3,-13.2 -0.5,-23.4 0.2,0.6 0.4,-19.2 0.7,-28.6 l 0.1,0.3 c -0.3,-0.8 -0.5,-3 -0.6,-5.9 -0.1,-3 -0.1,-6 -0.1,-10.3 -1.4,0 -2.7,0 -3.9,0.1 0.3,-0.3 1.2,-0.5 4.5,-0.6 0.1,0.4 0.1,1.5 0.2,3 l 0,-3.2 -6,0 c -1.6,0.2 -3.7,0.4 -8,0.4 l 1.7,-0.5 c -8.9,0 -17.9,0.6 -29.4,0.3 -0.6,0.5 9.1,1.4 -3,1.8 -0.4,-0.3 -0.9,-0.8 2.3,-0.9 -1,0 -3.7,0.2 -5.8,0.1 l 4.8,-0.5 c -5.2,-0.2 -2.7,0.4 -6.9,0.3 0.1,-0.4 -3.1,-0.3 -2.5,-0.6 1.1,0 3.6,0.2 5.2,0 -4.7,-0.1 -10.4,-0.3 -12.3,-0.6 0.4,0.2 0,0.5 -3.4,0.6 -8.9,0 -3,-0.5 -8.2,-0.7 -2.2,0.3 -7.8,0 -8,0.6 -2.6,0 -3.1,-0.3 -4.1,-0.4 -4.6,0.3 -21.5,0.1 -16.3,0.7 l 1.2,0 c -0.2,0 -0.5,0 -0.8,0 0,0 0,0 0,0 l 0,0 c -15.1,0.6 -31.4,-0.3 -46.4,-0.1 l 0,-0.2 c -8.9,0.2 -19.9,0.1 -26.3,0.6 -2.6,0 -6.2,-0.4 -5.1,-0.6 -6.8,0.1 -7.6,0.4 -17.5,0 6.9,-0.3 -2.4,-0.3 7,-0.3 -8.9,-0.2 -10.9,-0.5 -20.4,0.1 3.2,-0.5 -6.7,-0.6 -10.9,-0.5 l 6.2,0.4 c -4.7,0.1 -8.9,0 -13.1,0 l 2.3,-0.7 c -18.2,-0.8 -32.8,1.4 -46.6,0 -4.8,0.5 9.9,0.3 5.6,0.9 -8.4,-0.1 -17.1,-1 -19.7,-1 -11.5,-0.4 -10.7,1 -22.7,0.7 1.5,0.2 3,0.9 -6,1.1 -8.4,-0.1 -10.3,-1 -5,-1.2 2,0 3,0.1 2.9,0.1 2.7,-0.1 6.3,-0.2 2.9,-0.4 l -1.1,0.2 c -4.2,-0.2 -15.7,-0.2 -13,-0.6 -6.3,0.2 -2.7,0.4 2,0.5 -10.7,-0.3 -16.8,0 -27.8,-0.2 1.8,0.1 3.4,0.4 1.6,0.4 -16.2,-0.3 -7.1,0.5 -18.1,0.6 -6.2,-0.4 2.2,-0.9 -8.8,-0.6 -6.8,-0.2 -1.4,-0.6 1.3,-0.8 -10.1,0.5 -18.8,-0.3 -24.6,-0.4 l 5.3,-0.2 c -3.2,0.1 -5.8,0.1 -8.4,0.1 l 3,0.5 c -3.1,-0.1 -5.8,-0.1 -5.7,-0.3 -3.2,0.3 2.5,0.8 -3.9,1.2 -4.2,-0.2 -12.6,0.3 -14.1,-0.4 13.1,0.2 -1.4,-0.6 9.6,-0.7 -2.1,0.1 -4.7,0.1 -7.9,0 -0.5,-0.1 0.4,-0.1 1.3,-0.2 -12.5,-0.6 -5.7,0.7 -18.7,0.7 1.6,-0.4 -3,-0.7 -5.1,-0.6 5.2,0 2.5,0.6 -2.3,0.9 -8.3,-0.3 -9,0.2 -13.4,0.2 l 5,0.1 c -1.7,0.4 -5.8,0.3 -11.6,0.4 -0.5,-0.3 5.3,-0.2 3.2,-0.3 -6.4,0.6 -14.5,-0.6 -23.5,-0.2 -4.2,-0.2 -0.4,-0.7 -4,-0.8 -10,0.5 -10.9,-0.5 -21.4,-0.1 3,0.5 3.6,0.4 -3.9,0.8 l 17.4,-0.3 -11.1,0.7 c 5.2,0 11.1,-0.3 14.2,-0.2 -5.3,0.4 -4.8,0.3 -2.3,0.7 -7.2,-0.7 -14.2,0.4 -22.5,-0.1 l 0.3,-1.2 c -12.5,-0.5 -22.1,0.6 -38.3,0.3 l 5.2,0.2 c -2.2,0.5 -10,0.1 -15.2,0.3 0.5,-0.4 -2.8,-0.5 -5,-0.8 0.3,0.3 -11.8,0 -13.3,0.8 l -7.2,-0.5 c -13.1,-0.2 -14.9,1.1 -27.5,1 3.8,-0.4 -1.9,-0.7 6.5,-1 -4.2,0 -8,-0.1 -8,0.2 -2.4,-0.2 -11.6,0.5 -15.5,0.2 -1.8,0.2 -2.3,0.6 -7.1,0.6 -0.5,-0.1 0,-0.2 0,-0.2 0,0.2 -7.4,0.3 -3.3,0.7 -12.9,-1.2 -36.1,0.1 -47.3,-1 -9.1,0.1 -20.2,0.3 -28.5,0.3 0.5,-0.1 0,-0.2 1.6,-0.2 -11.5,-0.4 -7,1.1 -20.1,0.7 -6.7,-0.6 6.9,-0.3 2.8,-0.6 -1.8,-1.3 -15.7,0.2 -24.5,-0.6 l 2.1,-0.1 c -6.7,-0.4 -16.4,0.5 -27.3,0.4 0,0 0.5,-0.1 0.1,-0.2 -7.5,0.7 -21.7,0.9 -32.2,1.1 3.3,-0.5 4.8,-0.3 2.8,-0.8 -4.7,0.1 1.4,0.8 -8,1 -3.1,-0.3 -9.9,-0.5 -10.8,-1.1 l 8.9,0 c -4.6,-0.7 -11.5,0 -16.2,-0.1 l 0.6,-0.3 c -13.6,0.1 -13.8,0.9 -28.5,0.8 l 1.5,0.2 c -8,0.8 -6.7,-0.4 -14.7,0.1 l -2.4,-0.8 c -5.3,0.2 -18.5,0.8 -28,0.9 5.4,-0.6 16.5,-0.9 23.3,-1.2 -5.2,0 -17.8,0.1 -20.5,0.4 2.1,-0.1 4.8,-0.3 6.9,-0.1 -6.4,0.6 -14.9,0.9 -25.3,0.9 0.6,-0.5 -2.1,-0.7 -6.3,-0.8 -2.1,-0.1 -4.5,-0.1 -7.1,-0.1 -3.1,0 -6.4,0 -9.6,-0.1 0,1.9 0,3.9 -0.1,5.7 0,1.3 -0.1,2.6 -0.1,3.7 -0.1,2.3 -0.2,4.3 -0.4,5.6 0.6,18.5 -0.2,36.6 -0.2,58.1 1.2,-7.6 0,6.3 1.3,5 0.1,5 0.1,6.9 0,7.4 l -0.7,15.2 c -0.4,3.6 -0.3,-4.8 -0.5,-4.3 -0.1,11 -0.5,4.6 -0.8,11.9 0.4,-1.5 0.6,3.8 0.5,10.1 L 5.1,346 c 0.7,15.3 -1,13.3 -0.4,28.7 L 3.2,369 c 0.2,7.9 0,29.3 1,37 -0.1,1.4 -0.5,3.3 -0.6,-0.2 -0.1,19 1,42.2 0.4,56.9 l -0.3,-1.4 c 0.1,3.5 0.6,6.2 0.3,10.6 -0.1,-0.2 -0.3,-1.4 -0.3,0.2 0.1,1.9 0.5,9.4 0.3,14.1 l -0.3,-4 c -0.1,5.1 -0.1,9.5 0,13.6 0.1,4.8 0.3,9.2 0.4,13.6 1.2,0 2.5,-0.1 3.7,-0.1 l 1.7,0 1.1,0 c 1.5,-0.1 3,-0.1 4.5,-0.2 3.1,-0.1 6.3,-0.2 9.8,-0.3 0,0.9 14.5,1.2 21.8,1.3 l -0.3,0.1 c 21.5,0.1 36.6,-0.7 56.5,-1.1 12.4,1 41.9,0.4 61.8,0.9 -3,-0.2 0.5,-0.7 4,-0.8 4.7,0.2 12.9,-0.6 12.2,0.2 l -1.7,0 c 3.5,0.8 13.1,0.6 20.6,0.6 l 1.2,-1.1 c 19.6,1.5 51.3,-0.6 62,0.8 4.7,-0.3 10.6,-0.3 15.3,-0.5 l -0.3,0.6 c 13.1,0.1 19.6,0.2 35.8,0.1 l -3.3,0.4 c 9.1,0 11.5,-1.6 20,-1.7 l 2.5,0.8 c 15.9,0 32.1,0.7 47.8,0 -0.3,0.1 -0.7,0.4 -3.3,0.4 7.5,0 29,0.6 26.3,-0.6 0.2,0.8 16.4,0.1 25,-0.3 l -1.3,0.6 c 7.3,-0.7 7.5,-0.9 17.6,-1.1 2.4,0.1 2.1,0.4 -1.1,0.3 8,0.3 6.2,-0.5 15.9,-0.2 l -3.6,0.4 c 8.2,0 7.6,-0.1 12.1,-0.6 5.2,-0.2 15.6,0.1 16.8,0.6 1.1,-0.3 5.6,-0.7 10.5,-0.6 0.7,0.2 -1.1,0.3 -2,0.4 13.8,0.4 20.5,-0.6 30,-0.1 0.2,0.2 0.8,0.3 1.6,0.3 -10.9,0 -19.8,0 -18.9,-0.1 0,0.5 8.8,0.6 1.8,1.3 7.1,-0.4 19.2,-1.2 27.8,-1 0.4,0 0.8,0.1 1.1,0.2 l -0.9,0.1 c 2,0.1 3.8,0 5.4,-0.1 2.7,0.1 4.5,0.1 7.1,0.2 1,0.4 10.1,0.2 14.5,0.3 -0.4,-0.6 5.4,-0.5 0,-0.9 0.7,0 -0.8,0.1 -3.8,0.1 -0.7,0 -1.4,0 -1.9,0.1 0.1,0 0.2,0 0.3,0 -2.9,0 -6.7,0 -11,0 3.5,-0.3 7.1,-0.5 12,-0.2 2.3,-0.4 4.8,-0.7 6.2,-0.9 6,0.8 17.7,1.2 19.3,1.7 13.5,-0.3 31.7,-0.2 40.2,-1.3 3.8,-0.1 4.4,0.3 5.8,0.5 -2.2,0.1 -4.8,0.1 -6,0.2 7.7,-0.3 22.7,-0.1 24.5,-0.8 9.6,0.3 -5.4,0.7 7.8,0.6 l -1.8,0.2 c 26.1,1.2 42.4,-1.9 71.3,-0.4 -2,-0.1 -3,-0.1 -3.4,-0.3 33,0.7 67.9,-0.6 100.4,0.4 9.2,0.2 10.2,-0.3 15.9,-0.6 l 2,0.6 9.6,-0.7 c 13.7,-0.5 23.7,1.5 41,0.5 l -2.2,-0.4 c 6.2,0.1 19.7,-0.2 18.7,0.2 0.6,-0.1 2,-0.4 4.5,-0.2 l 0.2,0.3 15.3,-0.5 c 11.8,0.2 -1.9,1.3 15.4,1.3 6.4,-0.1 18.3,-0.9 15.9,-1.1 -2.6,0 -6.6,-0.2 -6.8,-0.5 l 5.9,-0.2 c 1.1,-0.9 5.6,-1.9 -8.8,-2.5 l -10,0.6 -3.2,-0.5 8.5,0 c -4.8,-0.4 -7.8,0 -11.2,0.2 -0.8,-0.2 -2.2,-0.4 -4.2,-0.5 l -9.9,0.9 c -1.2,-0.4 4.4,-0.7 -2.2,-0.9 -4.6,0.4 4.4,0.8 -3.2,1.1 -4.8,-0.4 -3.4,-0.8 -9,-0.4 -0.8,-0.2 0.4,-0.4 2.6,-0.5 -5,0.3 -13.3,0.1 -15.9,0.6 -5,-0.5 -17,0.1 -16.5,-0.7 -1.6,0.2 -8.8,0.7 -13.5,0.7 8.4,-1.1 -17.3,-0.1 -15,-1.2 -6.2,0.9 -22.5,0.4 -33.6,0.9 0.6,-0.1 1.8,-0.2 2.8,-0.2 -6.2,-0.1 -8,-0.4 -12,-0.5 -0.8,0.8 -10.5,1 -15.7,1.4 -7.6,-0.8 4.6,-0.9 2.2,-1.6 0.4,0.6 -13.2,0.6 -10.7,1.2 -5.8,-0.5 -5,-0.2 -8,-0.9 -1,1 -5.4,0.2 -10.3,0.8 -8.4,-0.5 -2.2,-0.9 -11.4,-0.6 -4.2,-0.6 4.1,-0.9 4.1,-0.9 z M 534,505.7 c 0,0 0,0 0,0 1.9,0 3.5,0 4.5,0 -0.9,0 -2.2,0 -4.5,0 z m -18.6,0 c 2.3,0 5.1,0 8,0 0.6,0.2 -0.1,0.4 -1.9,0.4 1.1,-0.1 -3.3,-0.2 -6.1,-0.4 z m 39.2,3.9 c -2.9,0.1 -3.9,0 -4.3,-0.1 1.4,0 3,0 5.1,-0.1 0.1,0 0.3,-0.1 0.3,-0.1 -0.2,0.1 -0.5,0.2 -1.1,0.3 z"
               id="path71"
               inkscape:connector-curvature="0"
               style="fill:#4a3224" /><path
               class="st1"
               d="m 559.9,508.9 c 0.4,0 0.7,0 1.2,0 -0.6,0 -1.2,-0.1 -1.7,-0.1 -0.4,0.1 -0.7,0.1 -1,0.2 0.4,-0.1 1,-0.1 1.5,-0.1 z"
               id="path73"
               inkscape:connector-curvature="0"
               style="fill:#4a3224" /><path
               class="st1"
               d="m 861.6,236.4 -0.4,0 c 0.3,0 0.6,0 0.8,0.1 -0.2,0 -0.2,-0.1 -0.4,-0.1 z"
               id="path75"
               inkscape:connector-curvature="0"
               style="fill:#4a3224" /><polygon
               class="st1"
               points="259.7,504.6 259.7,504.8 261.3,504.6 "
               id="polygon77"
               style="fill:#4a3224" /><path
               class="st1"
               d="m 958.9,240.9 c 0,0.2 -0.1,0.6 -0.1,1.3 0,-0.1 0.1,-0.6 0.1,-1.3 z"
               id="path79"
               inkscape:connector-curvature="0"
               style="fill:#4a3224" /><path
               class="st1"
               d="m 958.8,284.9 -0.2,6.2 c 0.1,-2.6 0.1,-4.6 0.2,-6.2 z"
               id="path81"
               inkscape:connector-curvature="0"
               style="fill:#4a3224" /><path
               class="st1"
               d="m 958.5,318.8 c 0.1,0.4 0.2,0.6 0.2,0.7 0,0 0,0 0,-0.1 l -0.2,-0.6 z"
               id="path83"
               inkscape:connector-curvature="0"
               style="fill:#4a3224" /><path
               class="st1"
               d="m 502.9,239.4 c -0.5,0 -0.9,0 -1.3,0 -3.1,0.1 -1,0.1 1.3,0 z"
               id="path85"
               inkscape:connector-curvature="0"
               style="fill:#4a3224" /><path
               class="st1"
               d="m 663.2,238.1 c -1.7,0.1 -3.4,0.2 -5.2,0.3 2.9,0 5.1,0 5.2,-0.3 z"
               id="path87"
               inkscape:connector-curvature="0"
               style="fill:#4a3224" /><path
               class="st1"
               d="m 323.9,240.1 c 0,0 0,0 0,0 -0.4,0 -0.7,0 -1.1,0 l 1.1,0 z"
               id="path89"
               inkscape:connector-curvature="0"
               style="fill:#4a3224" /><path
               class="st1"
               d="m 650.6,238.3 c 2.9,0.1 5.2,0.1 7.5,0 -2.4,0 -5.2,0 -7.5,0 z"
               id="path91"
               inkscape:connector-curvature="0"
               style="fill:#4a3224" /><path
               class="st1"
               d="m 958.2,465.6 0,1.6 c 0,0 0.1,0.1 0.1,0.2 l -0.1,-1.8 z"
               id="path93"
               inkscape:connector-curvature="0"
               style="fill:#4a3224" /><path
               class="st1"
               d="m 958.3,467.5 0.1,1.8 c 0,-0.8 0,-1.6 -0.1,-1.8 z"
               id="path95"
               inkscape:connector-curvature="0"
               style="fill:#4a3224" /><path
               class="st1"
               d="m 958.5,473.1 -0.1,-3.8 c 0,1.3 0,2.9 0.1,3.8 z"
               id="path97"
               inkscape:connector-curvature="0"
               style="fill:#4a3224" /><path
               class="st1"
               d="m 958.5,420.8 -0.2,-0.5 c 0,0.3 0.1,0.4 0.2,0.5 z"
               id="path99"
               inkscape:connector-curvature="0"
               style="fill:#4a3224" /><path
               class="st1"
               d="m 958.4,407.2 c 0,3.3 -0.4,8.2 -0.3,12.7 l 0.2,0.4 c -0.3,-2.2 0.5,-10 0.1,-13.1 z"
               id="path101"
               inkscape:connector-curvature="0"
               style="fill:#4a3224" /><path
               class="st1"
               d="m 961,350.3 -0.2,11.4 c 0.2,-2 0.5,-4.6 0.6,0.6 0.6,-14.4 -0.5,2.9 -0.4,-12 z"
               id="path103"
               inkscape:connector-curvature="0"
               style="fill:#4a3224" /><path
               class="st1"
               d="m 961.3,314.9 c 0.1,6.1 0.3,-0.1 0.4,0.3 -0.2,-4 -0.2,-4.9 -0.4,-0.3 z"
               id="path105"
               inkscape:connector-curvature="0"
               style="fill:#4a3224" /><path
               class="st1"
               d="m 781.7,236 0.6,-0.5 c -4.7,0 0,0.2 -0.6,0.5 z"
               id="path107"
               inkscape:connector-curvature="0"
               style="fill:#4a3224" /><polygon
               class="st1"
               points="732.8,238.6 737.4,238.9 739.6,238.5 "
               id="polygon109"
               style="fill:#4a3224" /><polygon
               class="st1"
               points="703.9,235 705.9,234.9 698,235.1 "
               id="polygon111"
               style="fill:#4a3224" /><path
               class="st1"
               d="m 274.1,235.1 1.4,0.6 c 3.2,0 3.9,-0.7 -1.4,-0.6 z"
               id="path113"
               inkscape:connector-curvature="0"
               style="fill:#4a3224" /><path
               class="st1"
               d="m 88.5,235.8 c -2,-0.3 -7.2,-0.5 -10.5,-0.2 4.2,0 8.4,0.3 10.5,0.2 z"
               id="path115"
               inkscape:connector-curvature="0"
               style="fill:#4a3224" /><polygon
               class="st1"
               points="210.5,509.7 206.7,509.9 213.8,509.7 "
               id="polygon117"
               style="fill:#4a3224" /></g></g></g></g></g></svg>