<?xml version="1.0" encoding="UTF-8" standalone="no"?>
<!-- Generator: Adobe Illustrator 19.1.1, SVG Export Plug-In . SVG Version: 6.00 Build 0)  -->

<svg
   xmlns:dc="http://purl.org/dc/elements/1.1/"
   xmlns:cc="http://creativecommons.org/ns#"
   xmlns:rdf="http://www.w3.org/1999/02/22-rdf-syntax-ns#"
   xmlns:svg="http://www.w3.org/2000/svg"
   xmlns="http://www.w3.org/2000/svg"
   xmlns:sodipodi="http://sodipodi.sourceforge.net/DTD/sodipodi-0.dtd"
   xmlns:inkscape="http://www.inkscape.org/namespaces/inkscape"
   version="1.1"
   id="Camada_1"
   x="0px"
   y="0px"
   viewBox="0 0 54.700001 24.123442"
   xml:space="preserve"
   inkscape:version="0.91 r13725"
   sodipodi:docname="leaf.svg"
   width="54.700001"
   height="24.123442"><metadata
     id="metadata123"><rdf:RDF><cc:Work
         rdf:about=""><dc:format>image/svg+xml</dc:format><dc:type
           rdf:resource="http://purl.org/dc/dcmitype/StillImage" /><dc:title></dc:title></cc:Work></rdf:RDF></metadata><defs
     id="defs121" /><sodipodi:namedview
     pagecolor="#ffffff"
     bordercolor="#666666"
     borderopacity="1"
     objecttolerance="10"
     gridtolerance="10"
     guidetolerance="10"
     inkscape:pageopacity="0"
     inkscape:pageshadow="2"
     inkscape:window-width="958"
     inkscape:window-height="1008"
     id="namedview119"
     showgrid="false"
     fit-margin-top="0"
     fit-margin-left="0"
     fit-margin-right="0"
     fit-margin-bottom="0"
     inkscape:zoom="0.3"
     inkscape:cx="-560.2"
     inkscape:cy="-200.4"
     inkscape:window-x="953"
     inkscape:window-y="217"
     inkscape:window-maximized="0"
     inkscape:current-layer="Camada_1" /><style
     type="text/css"
     id="style3">
	.st0{fill:#31A331;}
	.st1{fill:#265726;}
</style><path
     class="st0"
     d="m 40.8,15.323442 c 0,0 -12,-24.8000005 -40.8,-11.3000005 0,0 9.5,12.5000005 40.8,14.0000005 0,0 10.5,2.9 13.9,6.1 0,0 -4.2,-5.5 -13.9,-8.8 z"
     id="path5"
     inkscape:connector-curvature="0"
     style="fill:#31a331" /><g
     id="g7"
     transform="translate(-1040.2,-55.476558)"><g
       id="g9"><g
         id="g11"><g
           id="g13"><g
             id="g15"><path
               class="st1"
               d="m 1059.2,62.8 c 0,0 0,0 0,0 l 0,0 0,0 z"
               id="path17"
               inkscape:connector-curvature="0"
               style="fill:#265726" /><path
               class="st1"
               d="m 1059.4,63 c 0,0 0.1,-0.1 0.1,-0.2 -0.1,0.1 -0.1,0 -0.1,0.2 -0.1,0 -0.1,-0.1 -0.1,-0.1 0,0 0,0 -0.1,0 0.1,0 0.2,0.1 0.2,0.1 0,-0.1 0,0 0,0 z"
               id="path19"
               inkscape:connector-curvature="0"
               style="fill:#265726" /><path
               class="st1"
               d="m 1062.5,63.8 0,0 c 0,0 0,0 0,0 z"
               id="path21"
               inkscape:connector-curvature="0"
               style="fill:#265726" /><path
               class="st1"
               d="m 1064.4,64.3 c -0.1,0 -0.1,0 0,0 -0.1,0 0,0 0,0 z"
               id="path23"
               inkscape:connector-curvature="0"
               style="fill:#265726" /><path
               class="st1"
               d="m 1064.6,64.5 0,0 c 0,0 0,0 0,0 z"
               id="path25"
               inkscape:connector-curvature="0"
               style="fill:#265726" /><path
               class="st1"
               d="m 1062.5,63.8 0,0 c 0,0 0,0 0,0 z"
               id="path27"
               inkscape:connector-curvature="0"
               style="fill:#265726" /><path
               class="st1"
               d="m 1059.9,62.9 c 0,0 -0.1,0 0,0 l 0,0 0,0 z"
               id="path29"
               inkscape:connector-curvature="0"
               style="fill:#265726" /><polygon
               class="st1"
               points="1061.6,63.6 1061.6,63.6 1061.6,63.7 "
               id="polygon31"
               style="fill:#265726" /><path
               class="st1"
               d="m 1061,63.5 c 0,0 0,-0.1 0,0 0,-0.1 0,-0.1 0,0 0,0 0,0 0,0 z"
               id="path33"
               inkscape:connector-curvature="0"
               style="fill:#265726" /><path
               class="st1"
               d="m 1060,63.2 0,0 0,0 z"
               id="path35"
               inkscape:connector-curvature="0"
               style="fill:#265726" /><path
               class="st1"
               d="m 1062.1,63.8 c 0,0 0,0 0,0 0,0 0,0 0,0 z"
               id="path37"
               inkscape:connector-curvature="0"
               style="fill:#265726" /><path
               class="st1"
               d="m 1079.2,70.8 c 0,0 0,0 0,0 0,0 0.1,0 0,0 z"
               id="path39"
               inkscape:connector-curvature="0"
               style="fill:#265726" /><polygon
               class="st1"
               points="1079.7,71.5 1079.7,71.5 1079.6,71.5 "
               id="polygon41"
               style="fill:#265726" /><path
               class="st1"
               d="m 1065.2,64.8 0,0 c 0,0 0,0 0,0 z"
               id="path43"
               inkscape:connector-curvature="0"
               style="fill:#265726" /><path
               class="st1"
               d="m 1070.5,66.7 c 0,-0.1 0.1,0 0.1,-0.1 -0.1,0 -0.2,0 -0.1,0.1 z"
               id="path45"
               inkscape:connector-curvature="0"
               style="fill:#265726" /><path
               class="st1"
               d="m 1059.9,62.9 0,0 c 0,0 0,0 0,0 z"
               id="path47"
               inkscape:connector-curvature="0"
               style="fill:#265726" /><polygon
               class="st1"
               points="1070.5,66.6 1070.5,66.6 1070.5,66.5 "
               id="polygon49"
               style="fill:#265726" /><path
               class="st1"
               d="m 1066.6,65.2 c 0,0 0,0 0,0 0,0 0,0 0,0 z"
               id="path51"
               inkscape:connector-curvature="0"
               style="fill:#265726" /><path
               class="st1"
               d="m 1065.6,64.7 0,0 c 0,0.1 0,0.1 0,0 z"
               id="path53"
               inkscape:connector-curvature="0"
               style="fill:#265726" /><path
               class="st1"
               d="m 1067.1,65.3 c 0,0 0,0 0,0 l 0,0 c 0,0 0,0 0,0 z"
               id="path55"
               inkscape:connector-curvature="0"
               style="fill:#265726" /><polygon
               class="st1"
               points="1067.6,65.5 1067.6,65.4 1067.6,65.4 "
               id="polygon57"
               style="fill:#265726" /><path
               class="st1"
               d="m 1077.8,69.8 c 0,0.1 0,0.1 0,0 0,0.1 0.1,0.1 0,0 z"
               id="path59"
               inkscape:connector-curvature="0"
               style="fill:#265726" /><path
               class="st1"
               d="m 1059.9,62.9 c 0,0 0,0 0,0 l 0,0 c 0,0 0,0 0,0 z"
               id="path61"
               inkscape:connector-curvature="0"
               style="fill:#265726" /><path
               class="st1"
               d="m 1067.3,64.8 0,0 c 0.1,0 0,0 0,0 z"
               id="path63"
               inkscape:connector-curvature="0"
               style="fill:#265726" /><path
               class="st1"
               d="m 1074.2,67.8 0,0 c 0,0 0,0 0,0 z"
               id="path65"
               inkscape:connector-curvature="0"
               style="fill:#265726" /><path
               class="st1"
               d="m 1067.7,64.9 c 0,0 0,0 0,0 0,0 0,0 0,0 l 0,0 z"
               id="path67"
               inkscape:connector-curvature="0"
               style="fill:#265726" /><path
               class="st1"
               d="m 1077.8,69.9 0,0 0,0 z"
               id="path69"
               inkscape:connector-curvature="0"
               style="fill:#265726" /><path
               class="st1"
               d="m 1078.4,70.1 c -0.1,0 -0.1,0.1 -0.1,0.1 -0.1,0 0,-0.1 0,-0.1 -0.1,0 -0.2,0 -0.2,0 0,0 0,0 0,0 -0.1,0 -0.2,-0.1 -0.3,-0.1 0,0 0,0 0,0 0,0 0,0.1 -0.1,0.1 0,0 -0.1,0 -0.1,0 0,0 0,0 0.1,0 l 0,0 c 0,-0.1 0.1,0 0.1,-0.1 -0.1,0 -0.2,0 -0.2,-0.1 0,-0.1 0.1,0.1 0.1,-0.1 l 0.1,0.1 c 0,-0.2 0,0 0.1,-0.1 -0.1,-0.1 -0.1,0 -0.2,-0.1 0,0 0,0.1 -0.1,0.1 -0.2,0 0,-0.3 -0.2,-0.2 -0.1,0 -0.1,0.1 -0.2,0 l 0.1,-0.1 c -0.1,-0.1 -0.1,0.1 -0.2,0 0,0 0.1,0 0.1,0 0,-0.1 -0.1,0 -0.1,0 l 0,-0.1 c -0.1,-0.1 -0.3,-0.1 -0.4,-0.1 0,0 0.1,0 0,-0.1 -0.2,-0.1 -0.3,-0.2 -0.5,-0.3 l -0.1,0 c 0,0 0,0 0,0 0,-0.1 0,0 -0.1,0 0,0 0,-0.1 0,-0.1 -0.1,0 -0.4,-0.1 -0.4,-0.2 l 0,0 c -0.1,-0.1 -0.2,0.1 -0.2,0 l 0,0 c -0.2,-0.1 -0.4,-0.2 -0.5,-0.4 -0.1,0.1 -0.2,-0.1 -0.2,0 -0.1,-0.1 0,-0.1 -0.2,-0.3 0,0 -0.1,0 -0.2,0 l 0,-0.1 -0.1,0 0,-0.1 -0.1,0 c 0,0 0,0.1 0,0.1 -0.1,0 -0.2,-0.1 -0.1,-0.2 l -0.2,0 c 0,0 0.1,0 0.1,0 -0.1,0 0,-0.1 -0.1,-0.1 0,0 0,0 0,0.1 0,-0.1 -0.1,-0.1 -0.2,-0.1 l 0,0 c -0.1,-0.1 -0.3,-0.1 -0.4,-0.2 0,0 0,0.1 -0.1,0.1 l 0,-0.1 c 0,0 0,0 -0.1,0.1 0,0 0,-0.1 0,-0.1 l -0.1,0 c 0,0 0,0 0,-0.1 0,0 -0.1,-0.1 -0.2,-0.1 l 0,0 c -0.1,-0.1 -0.2,-0.1 -0.3,-0.1 0,0.1 -0.1,0 -0.1,0.1 -0.1,-0.1 -0.2,-0.2 -0.3,-0.2 -0.1,0 0,0 -0.1,0.1 0,-0.1 -0.1,-0.1 0,-0.1 -0.1,0 -0.2,-0.1 -0.3,-0.1 0,0 0,0.1 0,0.1 0,0 -0.1,-0.1 0,-0.1 l 0,0 c -0.2,0 -0.3,-0.4 -0.5,-0.3 l 0,0 -0.2,0 c -0.1,0 0.1,0 0,-0.1 -0.2,0 -0.3,-0.1 -0.4,-0.1 0,-0.2 -0.4,-0.1 -0.5,-0.3 l 0,0 c -0.1,0 0,0 -0.1,-0.1 0,0 0,0.1 0,0.1 -0.3,-0.1 -0.6,-0.3 -0.9,-0.5 -0.1,-0.1 -0.2,0.2 -0.3,0 l 0.1,-0.1 c -0.3,0 -0.5,-0.2 -0.7,-0.2 0,0 0,0 0.1,0 0,-0.1 -0.2,-0.1 -0.2,0 0,0 0,0 0,-0.1 0,-0.1 -0.1,0 -0.2,0 0,0 0,0 0,0 0,0 -0.1,-0.1 -0.1,0 -0.1,-0.1 -0.2,0 -0.2,-0.1 -0.1,0.1 -0.1,-0.1 -0.2,0 0,-0.1 -0.1,-0.1 -0.2,-0.1 0,0 0,0 0,-0.1 -0.1,0 -0.1,0 -0.1,0 -0.1,-0.2 -0.3,0 -0.3,-0.2 -0.2,0 -0.4,0 -0.6,-0.1 0,-0.1 0.2,0.1 0.2,-0.1 -0.2,0 -0.3,0 -0.4,0 0,0 0,0 0.1,-0.1 -0.2,0 -0.3,-0.1 -0.5,-0.1 0,0 0,0 0,0 0,0 -0.1,0 -0.1,0 l 0,0 c 0,0.1 -0.2,0.1 -0.2,0.2 0.1,-0.1 -0.1,-0.1 0,-0.2 0,0 -0.1,0 -0.1,0.1 0,0 0,0 0,-0.1 -0.1,0 -0.1,0.1 -0.2,0 0,0 0,0 0,-0.1 -0.1,0 -0.1,0.1 -0.2,0 0,0 0,0 0,0 -0.1,0 -0.3,0.1 -0.4,0 0.1,-0.1 0,0 0,-0.1 l -0.1,0 0,0.1 c -0.1,0 -0.1,0 -0.2,0 l 0.1,0 -0.1,0 0.1,0.1 c -0.1,0 0,0.1 -0.1,0.1 0,0 -0.1,0 -0.1,-0.1 l 0,0 c 0,0 -0.1,0 -0.1,0 0,0 0,-0.1 0,-0.1 -0.1,0.1 -0.2,0 -0.2,0 0,0 0,-0.1 0,-0.1 l 0,0.1 c 0,0 0,0 0,-0.1 -0.1,0 0,0.1 -0.1,0 0,0 0,0 0,0 -0.1,-0.1 -0.2,0 -0.3,-0.1 0,-0.1 0.1,0 0.1,-0.1 -0.2,0 -0.3,0 -0.5,0 l 0,0 c -0.1,0.1 -0.1,-0.1 -0.2,0 0,0 0,-0.1 0,-0.1 -0.1,0 -0.2,0 -0.4,0 l 0,0 c -0.1,0 -0.2,-0.1 -0.2,-0.1 0,0 -0.1,0 -0.1,0.1 -0.2,-0.2 -0.4,0 -0.5,-0.2 0,0 0.1,0 0,0 l -0.2,0 c 0,0.1 0,0 0,0.1 0,0 -0.1,0 -0.1,0 0.1,0 0,-0.1 0,-0.1 0,0 0,0 0,0.1 -0.1,-0.1 0,0.1 -0.1,0 l 0,0 c 0,0 -0.1,0 -0.1,0 0,-0.1 0.1,0 0.1,-0.1 -0.1,0 -0.1,0.1 -0.2,0 0,0 0.1,0 0.1,0 0,-0.1 -0.1,-0.1 -0.1,-0.1 l 0,0 -0.1,-0.1 0,0 c -0.1,0.2 -0.2,0 -0.3,0.1 0.1,-0.1 0,-0.1 0.1,-0.1 0,0 -0.1,-0.1 0,-0.1 -0.1,0 -0.1,-0.1 -0.2,0 0,0 -0.1,0 0,-0.1 -0.1,0 0,0 0,0.1 -0.1,0.1 -0.2,-0.1 -0.4,-0.1 -0.1,0 -0.2,0.1 -0.3,0.1 0,0 0,-0.1 0,-0.1 -0.1,0 -0.1,-0.1 -0.2,0 0,0 0,0 0,-0.1 0,0 0,0.1 -0.1,0 0,0 0,-0.1 0.1,-0.1 -0.1,0 -0.1,0 -0.2,0.1 0,0 0,-0.1 0.1,-0.1 -0.1,0 -0.2,0 -0.2,0.1 l 0,0 c 0,0 0,-0.1 0,-0.1 0.1,0 0.1,0 0.1,0.1 l 0,0 c 0,0.1 0.2,0 0.2,0 l -0.1,0.1 0.1,-0.1 c 0,0 0,0.1 0,0.1 0,0.1 0.1,0 0.1,0 0,0 0,0 0,0 l 0.1,0 c 0,0 0,0.1 0,0.1 0.1,0.1 0.2,0 0.2,0 l 0,0 c 0.1,0 0,-0.1 0.2,-0.1 l 0,0.2 0,-0.1 c 0,0 0,0 0,0 0.1,0 0,0 0,-0.1 0.1,0.1 0.2,0 0.2,0.1 0,-0.1 -0.1,-0.1 0,-0.1 0,0.1 0.1,0 0.1,0.1 0,0.1 -0.1,0 0,0.1 0.1,-0.1 0.1,0 0.2,0 0,-0.1 0.1,0 0.2,0 0,0 0.2,0.1 0.2,0.1 l 0,0 c 0,-0.1 0.1,0 0.2,0 0,0.1 0,0.1 -0.1,0.1 l 0.1,0 c 0,0 0,0 0.1,0 l 0,0.1 c 0.1,0 0.2,0 0.3,0 0,-0.1 0,-0.2 0.1,-0.2 0,0 0,0.1 0,0.1 0,0 0,0 0.1,0 l -0.1,0 c 0,0 0,0 0.1,0 0,0 0,0 0,0.1 0,0 0,0 0,0 0,0 0.1,0.1 0.1,0.1 0,0 0,-0.1 0,-0.1 0.1,0 0,0.1 0.1,0.1 0,0 0.1,0 0.1,-0.1 0,0 0,0 0,0.1 0,0 0.2,0 0.2,0 l 0,0 0,0 0,0 0,0 c 0.2,0 0.3,0.1 0.4,0.1 l 0,0 c 0.1,0 0.2,0 0.3,0 0,0 0,0.1 0,0.1 0.1,0 0.1,0 0.2,0 -0.1,0 0,0 -0.1,0 0.1,0 0.1,0.1 0.2,0 0,0.1 0,0.1 0.1,0.1 l 0,-0.1 c 0,0 0.1,0 0.1,0 l 0,0.1 c 0.1,0.1 0.3,-0.1 0.4,0.1 0.1,0 -0.1,-0.1 0,-0.1 0.1,0 0.1,0.2 0.1,0.2 0.1,0.1 0.1,-0.1 0.2,0 0,0 0,-0.1 0.1,-0.1 0.1,0 0.1,0.1 0,0.2 0,0 0,0 0,0 0,0 -0.1,0 0,0 l 0,0 c 0,0 0.1,0.1 0.1,0.1 0.1,0 0,0 0,-0.1 0.1,0.1 0.1,0 0.2,0.1 0,0 0,-0.1 0,-0.1 0.1,0.1 0.1,0 0.2,0 0,0.1 -0.1,0.1 0.1,0.1 0.1,0 0,0.1 0,0.1 0.1,0 0.2,0.1 0.2,0.1 l -0.1,0 c 0,0 0.1,0 0.1,0 l 0,-0.1 c 0,0 0,0 0,0 0,0 0,-0.1 0.1,-0.1 0,0 0.1,0 0.1,0.1 -0.1,-0.1 0,0.1 -0.1,0.1 0,0 0,0 0.1,0 0,0 0,0 0,0 0.1,0.1 0.1,-0.1 0.2,0 0,0 0,0.1 0,0.1 0,0 0,-0.1 0.1,-0.1 0.1,0.1 0.1,0 0.1,0 l 0,0 c 0,0 0.1,0 0.1,0 0,0 -0.1,0 0,0 0.1,-0.1 0.1,0.1 0.2,0.1 0,0 0,0.1 0,0.1 0.1,0 0.1,0.1 0.2,0.1 0,-0.1 0,-0.1 0.1,-0.1 l -0.2,0 0.1,0 c 0,0 -0.1,0 -0.1,0 0.1,0 0.1,0 0,-0.1 0,0.1 0.1,0 0.2,0.1 l 0,0.1 c 0.1,0.1 0.2,0 0.3,0.1 l 0,0 c 0,0 0.1,0 0.1,0 0,0 0,0.1 0,0.1 0,0 0.1,0 0.1,-0.1 l 0,0.1 c 0.1,0.1 0.2,-0.1 0.3,0 -0.1,0 0,0.1 -0.1,0.1 0,0 0.1,0 0.1,0 0,0 0.1,0 0.1,0 0,0 0,-0.1 0.1,0 0,0 0,0 0,0 0,0 0.1,0 0.1,-0.1 0.1,0.2 0.3,0.1 0.4,0.3 0.1,0 0.2,0 0.3,0.1 0,0 0,0 0,0 0.1,0.1 0.1,-0.1 0.2,0 0,0.1 -0.1,0 0,0.1 0,0.2 0.1,0 0.2,0.1 l 0,0 c 0,0.1 0.2,0 0.3,0 0,0 0,0 0,0 0.1,-0.1 0.2,0 0.3,0 -0.1,0 -0.1,0 -0.1,0.1 0,0 0,-0.1 0.1,-0.1 0,0 0.1,0.1 0,0.2 l -0.1,0 c 0,0.1 0.1,0 0.1,0.1 l 0,0 c 0.1,0 0.2,-0.1 0.3,0 l 0,0 c 0.1,-0.1 0,0.1 0.1,0 l 0,0.1 c 0.1,0 0.2,0 0.3,0 -0.1,0 -0.2,0 -0.3,0.1 0,0 0.2,0.1 0.2,0 0,0 -0.1,0 -0.1,0 0.1,0 0.2,-0.1 0.3,0 -0.1,0.2 0.2,0.1 0.2,0.3 0.2,0 0.3,0.2 0.5,0.2 0,-0.2 0.1,0 0.1,-0.1 0,0 0.1,0 0.1,0 l 0.1,0.1 c 0,0.1 -0.1,0 -0.1,0 0.1,0 0,0.1 0.1,0.1 0,-0.1 0.1,-0.1 0.1,0 l 0,-0.1 c 0.2,0 0.1,0.2 0.2,0.1 l -0.1,0 c 0.1,0 0.2,0.1 0.4,0 0,0 0,0.1 0,0.1 0.1,0.1 0.4,0 0.5,0.2 l 0,0 c 0,0 0.1,0 0.1,0 0,0 0,0 0,0 0,0 0.1,0 0.1,0 l -0.1,0 c 0.1,0.1 0.3,0 0.4,0.1 0,0.1 0.1,0.2 0.1,0.2 l 0,0 c 0.2,0.1 0.3,0.1 0.5,0.1 0,0.2 0.3,0.2 0.5,0.4 0,0 0,-0.1 0.1,-0.1 0,0 0.1,0 0.1,0.1 l 0,0 c 0,0.1 0.1,0.1 0.1,0.2 l 0.1,-0.1 c 0.1,0.2 0.4,0.1 0.5,0.3 0.1,0 0.1,0 0.2,0 l 0,0.1 c 0.1,0.1 0.1,0.1 0.3,0.2 l -0.1,0 c 0.1,0 0.2,-0.1 0.3,-0.1 l 0,0.1 c 0.1,0.1 0.2,0.2 0.4,0.2 0,0 0,0 -0.1,0 0.1,0 0.2,0.2 0.2,0.1 0,0.1 0.1,0.1 0.2,0.1 l 0,0.1 c 0.1,0 0.1,-0.1 0.2,0 0,0 0,0.1 0,0 0,0.1 0.1,0 0.1,0 l -0.1,0 c 0.1,0 0.1,0 0.1,0 0.1,0 0.1,0.1 0.1,0.1 0,0 0.1,-0.1 0.1,0 0,0 0,0 0,0 0.1,0.1 0.2,0 0.2,0.1 0,0 0,0 0,0 -0.1,-0.1 -0.2,-0.1 -0.1,-0.1 0,0.1 0,0.1 -0.1,0.2 0.1,0 0.2,0 0.3,0 0,0 0,0 0,0 l 0,0 c 0,0 0,0 0,0 0,0 0,0 0,0.1 0,0.1 0.1,0.1 0.1,0.1 0,-0.1 0.1,0 0.1,-0.1 0,0 0,0 0,0 0,0 0,0 0,0 l 0,0 c 0,0 -0.1,0 -0.1,0 0,0 0.1,0 0.1,0 0,0 0.1,-0.1 0.1,-0.1 0,0.1 0.1,0.2 0,0.3 0.1,0 0.3,0.1 0.4,0.1 0,0 0,0.1 0,0.1 0,0 0,0 -0.1,0 0.1,0 0.2,0.1 0.2,0 0.1,0.1 -0.1,0 0,0.1 l 0,0 c 0.1,0.3 0.5,0 0.6,0.3 0,0 0,0 0,0 0.2,0.2 0.6,0.3 0.7,0.5 0.1,0.1 0.1,0 0.2,0 l 0,0.1 0.1,0 c 0.1,0 0.1,0.3 0.3,0.3 l 0,-0.1 c 0,0 0.2,0.1 0.1,0.1 0,0 0,0 0,0 l 0,0 0.2,0 c 0.1,0.1 -0.1,0.1 0,0.2 0.1,0 0.2,0 0.2,0 0,0 0,-0.1 0,-0.1 l 0.1,0 c 0.1,-0.1 0.2,-0.2 0.1,-0.3 l -0.1,0 0,-0.1 0.1,0 c 0,-0.1 -0.1,0 -0.1,0 0,0 0,-0.1 0,-0.1 l -0.1,0 c 0,0 0.1,0 0.1,-0.1 -0.1,0 0,0.1 -0.1,0.1 0,-0.1 0,-0.1 0,-0.1 0,0 0,0 0.1,0 -0.1,0 -0.1,-0.1 -0.2,0 0,-0.1 -0.1,-0.1 -0.1,-0.2 0,0 -0.1,0 -0.2,0 0.1,-0.1 -0.1,-0.1 0,-0.2 -0.1,0.1 -0.2,-0.1 -0.3,-0.1 0,0 0,0 0,0 0,0 0,-0.1 -0.1,-0.1 -0.1,0.1 -0.1,0 -0.2,0.1 0,-0.1 0.1,-0.1 0.1,-0.2 0,0.1 -0.1,0 -0.2,0.1 0,-0.1 0,0 0,-0.1 -0.1,0.1 -0.1,0 -0.1,0 -0.3,0.2 -0.2,0.2 -0.2,0.1 -0.1,0 0,0 0,0 z m -1.9,-0.9 0,0 c 0,0 0,0 0,0 0,0 0,0 0,0 z m -0.1,-0.1 c 0,0 0,0.1 0,0 0,0.1 0,0.1 0,0 0,0.1 0,0.1 0,0 z m 0,0.6 c 0,0 0,0 0,0 0,0 0,0 0,0 l 0,0 c 0.1,0 0,0 0,0 z"
               id="path71"
               inkscape:connector-curvature="0"
               style="fill:#265726" /><polygon
               class="st1"
               points="1076.5,69.7 1076.5,69.7 1076.5,69.7 1076.5,69.7 "
               id="polygon73"
               style="fill:#265726" /><polygon
               class="st1"
               points="1062.5,63.8 1062.5,63.8 1062.5,63.8 "
               id="polygon75"
               style="fill:#265726" /><polygon
               class="st1"
               points="1074.4,67.9 1074.4,67.9 1074.4,67.9 "
               id="polygon77"
               style="fill:#265726" /><path
               class="st1"
               d="m 1061.6,63.3 c 0,0 0,0 0,0 0,0 0,0 0,0 z"
               id="path79"
               inkscape:connector-curvature="0"
               style="fill:#265726" /><path
               class="st1"
               d="m 1061.2,63.2 0,0 c 0,0 0,0 0,0 z"
               id="path81"
               inkscape:connector-curvature="0"
               style="fill:#265726" /><path
               class="st1"
               d="m 1060.9,63.1 c 0,0 0,0 0,0 l 0,0 0,0 z"
               id="path83"
               inkscape:connector-curvature="0"
               style="fill:#265726" /><path
               class="st1"
               d="m 1065.7,64.3 0,0 c 0.1,0 0,0 0,0 z"
               id="path85"
               inkscape:connector-curvature="0"
               style="fill:#265726" /><path
               class="st1"
               d="m 1064.3,64 c 0,0 0,0 0,0 0,0 0,0 0,0 z"
               id="path87"
               inkscape:connector-curvature="0"
               style="fill:#265726" /><polygon
               class="st1"
               points="1067.3,64.7 1067.3,64.7 1067.3,64.8 "
               id="polygon89"
               style="fill:#265726" /><path
               class="st1"
               d="m 1064.4,64 c 0,0 -0.1,0 0,0 -0.1,0 0,0 0,0 z"
               id="path91"
               inkscape:connector-curvature="0"
               style="fill:#265726" /><polygon
               class="st1"
               points="1059.6,62.8 1059.6,62.8 1059.6,62.8 "
               id="polygon93"
               style="fill:#265726" /><path
               class="st1"
               d="m 1059.6,62.8 0,0 c 0,0 0,0 0,0 z"
               id="path95"
               inkscape:connector-curvature="0"
               style="fill:#265726" /><path
               class="st1"
               d="m 1059.5,62.8 0,0 c 0.1,0 0,0 0,0 z"
               id="path97"
               inkscape:connector-curvature="0"
               style="fill:#265726" /><path
               class="st1"
               d="m 1060,62.9 0,0 c 0,0 0,0 0,0 z"
               id="path99"
               inkscape:connector-curvature="0"
               style="fill:#265726" /><path
               class="st1"
               d="m 1060.1,62.9 c 0,0 -0.1,-0.1 -0.1,-0.1 l 0,0 c 0,0.1 0.1,0.2 0.1,0.1 z"
               id="path101"
               inkscape:connector-curvature="0"
               style="fill:#265726" /><path
               class="st1"
               d="m 1060.6,63.3 0,0 c -0.1,0 -0.1,0 -0.1,0 0.1,0.2 -0.1,0 0.1,0 z"
               id="path103"
               inkscape:connector-curvature="0"
               style="fill:#265726" /><path
               class="st1"
               d="m 1060.9,63.4 c -0.1,0 0,0.1 0,0 0,0.1 0,0.1 0,0 z"
               id="path105"
               inkscape:connector-curvature="0"
               style="fill:#265726" /><path
               class="st1"
               d="m 1063.1,64 0,0 c 0.1,0.1 0,0 0,0 z"
               id="path107"
               inkscape:connector-curvature="0"
               style="fill:#265726" /><polygon
               class="st1"
               points="1063.7,63.8 1063.6,63.7 1063.6,63.8 "
               id="polygon109"
               style="fill:#265726" /><polygon
               class="st1"
               points="1063.8,64.3 1063.8,64.3 1063.9,64.3 "
               id="polygon111"
               style="fill:#265726" /><path
               class="st1"
               d="m 1067.5,65.5 0,0 c 0,-0.1 0,0 0,0 z"
               id="path113"
               inkscape:connector-curvature="0"
               style="fill:#265726" /><path
               class="st1"
               d="m 1069.1,66 c 0,0.1 0.1,0.1 0,0 0.1,0 0.1,0 0,0 z"
               id="path115"
               inkscape:connector-curvature="0"
               style="fill:#265726" /><polygon
               class="st1"
               points="1073.7,68.2 1073.6,68.2 1073.7,68.2 "
               id="polygon117"
               style="fill:#265726" /></g></g></g></g></g></svg>