<?xml version="1.0" encoding="UTF-8" standalone="no"?>
<!-- Generator: Adobe Illustrator 19.1.1, SVG Export Plug-In . SVG Version: 6.00 Build 0)  -->

<svg
   xmlns:dc="http://purl.org/dc/elements/1.1/"
   xmlns:cc="http://creativecommons.org/ns#"
   xmlns:rdf="http://www.w3.org/1999/02/22-rdf-syntax-ns#"
   xmlns:svg="http://www.w3.org/2000/svg"
   xmlns="http://www.w3.org/2000/svg"
   xmlns:xlink="http://www.w3.org/1999/xlink"
   xmlns:sodipodi="http://sodipodi.sourceforge.net/DTD/sodipodi-0.dtd"
   xmlns:inkscape="http://www.inkscape.org/namespaces/inkscape"
   version="1.1"
   id="Camada_1"
   x="0px"
   y="0px"
   viewBox="0 0 1008 1023.6"
   xml:space="preserve"
   inkscape:version="0.91 r13725"
   sodipodi:docname="sunflower.svg"
   width="1008"
   height="1023.6"><metadata
     id="metadata109"><rdf:RDF><cc:Work
         rdf:about=""><dc:format>image/svg+xml</dc:format><dc:type
           rdf:resource="http://purl.org/dc/dcmitype/StillImage" /><dc:title></dc:title></cc:Work></rdf:RDF></metadata><defs
     id="defs107" /><sodipodi:namedview
     pagecolor="#ffffff"
     bordercolor="#666666"
     borderopacity="1"
     objecttolerance="10"
     gridtolerance="10"
     guidetolerance="10"
     inkscape:pageopacity="0"
     inkscape:pageshadow="2"
     inkscape:window-width="684"
     inkscape:window-height="480"
     id="namedview105"
     showgrid="false"
     fit-margin-top="0"
     fit-margin-left="0"
     fit-margin-right="0"
     fit-margin-bottom="0"
     inkscape:zoom="0.2799099"
     inkscape:cx="1598"
     inkscape:cy="419.8"
     inkscape:window-x="0"
     inkscape:window-y="217"
     inkscape:window-maximized="0"
     inkscape:current-layer="Camada_1" /><style
     type="text/css"
     id="style3">
	.st0{fill:#EBC310;}
	.st1{opacity:0.5;}
	.st2{clip-path:url(#SVGID_2_);}
	.st3{fill:#D89216;}
	.st4{fill:#47210C;}
	.st5{fill:#1E130A;stroke:#7C6251;stroke-width:12;stroke-miterlimit:10;}
</style><g
     id="g5"
     transform="translate(1118,323.8)"><g
       id="g7"><g
         id="g9"><path
           class="st0"
           d="m -613.7,-2.2 c 0,0 -112.1,-139.6 0,-321.6 0,0.1 110,152.4 0,321.6 z"
           id="path11"
           inkscape:connector-curvature="0"
           style="fill:#ebc310" /><path
           class="st0"
           d="m -678.8,9.2 c 0,0 -153.1,-92.9 -110,-302.2 0,0 155.5,105.5 110,302.2 z"
           id="path13"
           inkscape:connector-curvature="0"
           style="fill:#ebc310" /><path
           class="st0"
           d="m -736,42.1 c 0,0 -175.6,-34.9 -206.7,-246.3 0,0 182.1,46 206.7,246.3 z"
           id="path15"
           inkscape:connector-curvature="0"
           style="fill:#ebc310" /><path
           class="st0"
           d="m -778.6,92.7 c 0,0 -177,27.3 -278.5,-160.8 0.1,0 187,-19.1 278.5,160.8 z"
           id="path17"
           inkscape:connector-curvature="0"
           style="fill:#ebc310" /><path
           class="st0"
           d="m -801.2,154.7 c 0,0 -157,86.2 -316.7,-55.8 0,0 169.1,-81.9 316.7,55.8 z"
           id="path19"
           inkscape:connector-curvature="0"
           style="fill:#ebc310" /><path
           class="st0"
           d="m -801.3,220.8 c 0,0 -118,134.7 -316.7,55.8 0,0 130.9,-134.8 316.7,-55.8 z"
           id="path21"
           inkscape:connector-curvature="0"
           style="fill:#ebc310" /><path
           class="st0"
           d="m -778.8,282.9 c 0,0 -64.9,166.9 -278.5,160.8 0,-0.1 76.9,-171.5 278.5,-160.8 z"
           id="path23"
           inkscape:connector-curvature="0"
           style="fill:#ebc310" /><path
           class="st0"
           d="m -736.4,333.5 c 0,0 -3.9,179 -206.7,246.3 0,0 13.6,-187.3 206.7,-246.3 z"
           id="path25"
           inkscape:connector-curvature="0"
           style="fill:#ebc310" /><path
           class="st0"
           d="m -679.3,366.6 c 0,0 57.6,169.5 -110,302.2 0,0 -51.2,-180.8 110,-302.2 z"
           id="path27"
           inkscape:connector-curvature="0"
           style="fill:#ebc310" /><path
           class="st0"
           d="m -614.3,378.2 c 0,0 112.1,139.6 0,321.6 0,-0.1 -110,-152.4 0,-321.6 z"
           id="path29"
           inkscape:connector-curvature="0"
           style="fill:#ebc310" /><path
           class="st0"
           d="m -549.2,366.8 c 0,0 153.1,92.9 110,302.2 0,0 -155.5,-105.5 -110,-302.2 z"
           id="path31"
           inkscape:connector-curvature="0"
           style="fill:#ebc310" /><path
           class="st0"
           d="m -492,333.9 c 0,0 175.6,34.9 206.7,246.3 0,0 -182.1,-46 -206.7,-246.3 z"
           id="path33"
           inkscape:connector-curvature="0"
           style="fill:#ebc310" /><path
           class="st0"
           d="m -449.4,283.3 c 0,0 177,-27.3 278.5,160.8 -0.1,0 -187,19.1 -278.5,-160.8 z"
           id="path35"
           inkscape:connector-curvature="0"
           style="fill:#ebc310" /><path
           class="st0"
           d="m -426.8,221.3 c 0,0 157,-86.2 316.7,55.8 0,0 -169.1,81.9 -316.7,-55.8 z"
           id="path37"
           inkscape:connector-curvature="0"
           style="fill:#ebc310" /><path
           class="st0"
           d="m -426.7,155.2 c 0,0 118,-134.7 316.7,-55.8 0,0 -130.9,134.8 -316.7,55.8 z"
           id="path39"
           inkscape:connector-curvature="0"
           style="fill:#ebc310" /><path
           class="st0"
           d="m -449.2,93.1 c 0,0 64.9,-166.9 278.5,-160.8 0,0.1 -76.9,171.5 -278.5,160.8 z"
           id="path41"
           inkscape:connector-curvature="0"
           style="fill:#ebc310" /><path
           class="st0"
           d="m -491.6,42.5 c 0,0 3.9,-179 206.7,-246.3 0,0 -13.6,187.3 -206.7,246.3 z"
           id="path43"
           inkscape:connector-curvature="0"
           style="fill:#ebc310" /><path
           class="st0"
           d="m -548.7,9.4 c 0,0 -57.6,-169.5 110,-302.2 0,0 51.2,180.8 -110,302.2 z"
           id="path45"
           inkscape:connector-curvature="0"
           style="fill:#ebc310" /></g></g><g
       class="st1"
       id="g47"
       style="opacity:0.5"><defs
         id="defs49"><circle
           id="SVGID_1_"
           class="st1"
           cx="-614"
           cy="189"
           r="330.60001"
           style="opacity:0.5" /></defs><clipPath
         id="SVGID_2_"><use
           xlink:href="#SVGID_1_"
           style="overflow:visible"
           id="use53"
           x="0"
           y="0"
           width="100%"
           height="100%" /></clipPath><g
         class="st2"
         id="g55"
         clip-path="url(#SVGID_2_)"><g
           id="g57"><path
             class="st3"
             d="m -613.7,-1.2 c 0,0 -112.1,-139.6 0,-321.6 0,0.1 110,152.4 0,321.6 z"
             id="path59"
             inkscape:connector-curvature="0"
             style="fill:#d89216" /><path
             class="st3"
             d="m -678.8,10.2 c 0,0 -153.1,-92.9 -110,-302.2 0,0 155.5,105.5 110,302.2 z"
             id="path61"
             inkscape:connector-curvature="0"
             style="fill:#d89216" /><path
             class="st3"
             d="m -736,43.1 c 0,0 -175.6,-34.9 -206.7,-246.3 0,0 182.1,46 206.7,246.3 z"
             id="path63"
             inkscape:connector-curvature="0"
             style="fill:#d89216" /><path
             class="st3"
             d="m -778.6,93.7 c 0,0 -177,27.3 -278.5,-160.8 0.1,0 187,-19.1 278.5,160.8 z"
             id="path65"
             inkscape:connector-curvature="0"
             style="fill:#d89216" /><path
             class="st3"
             d="m -801.2,155.7 c 0,0 -157,86.2 -316.7,-55.8 0,0 169.1,-81.9 316.7,55.8 z"
             id="path67"
             inkscape:connector-curvature="0"
             style="fill:#d89216" /><path
             class="st3"
             d="m -801.3,221.8 c 0,0 -118,134.7 -316.7,55.8 0,0 130.9,-134.8 316.7,-55.8 z"
             id="path69"
             inkscape:connector-curvature="0"
             style="fill:#d89216" /><path
             class="st3"
             d="m -778.8,283.9 c 0,0 -64.9,166.9 -278.5,160.8 0,-0.1 76.9,-171.5 278.5,-160.8 z"
             id="path71"
             inkscape:connector-curvature="0"
             style="fill:#d89216" /><path
             class="st3"
             d="m -736.4,334.5 c 0,0 -3.9,179 -206.7,246.3 0,0 13.6,-187.3 206.7,-246.3 z"
             id="path73"
             inkscape:connector-curvature="0"
             style="fill:#d89216" /><path
             class="st3"
             d="m -679.3,367.6 c 0,0 57.6,169.5 -110,302.2 0,0 -51.2,-180.8 110,-302.2 z"
             id="path75"
             inkscape:connector-curvature="0"
             style="fill:#d89216" /><path
             class="st3"
             d="m -614.3,379.2 c 0,0 112.1,139.6 0,321.6 0,-0.1 -110,-152.4 0,-321.6 z"
             id="path77"
             inkscape:connector-curvature="0"
             style="fill:#d89216" /><path
             class="st3"
             d="m -549.2,367.8 c 0,0 153.1,92.9 110,302.2 0,0 -155.5,-105.5 -110,-302.2 z"
             id="path79"
             inkscape:connector-curvature="0"
             style="fill:#d89216" /><path
             class="st3"
             d="m -492,334.9 c 0,0 175.6,34.9 206.7,246.3 0,0 -182.1,-46 -206.7,-246.3 z"
             id="path81"
             inkscape:connector-curvature="0"
             style="fill:#d89216" /><path
             class="st3"
             d="m -449.4,284.3 c 0,0 177,-27.3 278.5,160.8 -0.1,0 -187,19.1 -278.5,-160.8 z"
             id="path83"
             inkscape:connector-curvature="0"
             style="fill:#d89216" /><path
             class="st3"
             d="m -426.8,222.3 c 0,0 157,-86.2 316.7,55.8 0,0 -169.1,81.9 -316.7,-55.8 z"
             id="path85"
             inkscape:connector-curvature="0"
             style="fill:#d89216" /><path
             class="st3"
             d="m -426.7,156.2 c 0,0 118,-134.7 316.7,-55.8 0,0 -130.9,134.8 -316.7,55.8 z"
             id="path87"
             inkscape:connector-curvature="0"
             style="fill:#d89216" /><path
             class="st3"
             d="m -449.2,94.1 c 0,0 64.9,-166.9 278.5,-160.8 0,0.1 -76.9,171.5 -278.5,160.8 z"
             id="path89"
             inkscape:connector-curvature="0"
             style="fill:#d89216" /><path
             class="st3"
             d="m -491.6,43.5 c 0,0 3.9,-179 206.7,-246.3 0,0 -13.6,187.3 -206.7,246.3 z"
             id="path91"
             inkscape:connector-curvature="0"
             style="fill:#d89216" /><path
             class="st3"
             d="m -548.7,10.4 c 0,0 -57.6,-169.5 110,-302.2 0,0 51.2,180.8 -110,302.2 z"
             id="path93"
             inkscape:connector-curvature="0"
             style="fill:#d89216" /></g></g></g><g
       id="g95"><g
         id="g97"><g
           id="g99"><circle
             class="st4"
             cx="-614"
             cy="188"
             r="244.7"
             id="circle101"
             style="fill:#47210c" /></g><circle
           class="st5"
           cx="-613.70001"
           cy="195.7"
           r="144.60001"
           id="circle103"
           style="fill:#1e130a;stroke:#7c6251;stroke-width:12;stroke-miterlimit:10" /></g></g></g></svg>